<svg version="1.1" xmlns="http://www.w3.org/2000/svg" xmlns:xlink="http://www.w3.org/1999/xlink" width="500" height="500"><defs><linearGradient x1="46.15206" y1="96.35703" x2="46.15206" y2="408.08751" gradientUnits="userSpaceOnUse" id="color-1"><stop offset="0" stop-color="#161d1d"></stop><stop offset="1" stop-color="#304040"></stop></linearGradient><clipPath id="clip-1"><rect x="80.20833" y="77.96362" transform="scale(1.92,1.92)" width="100" height="83.333"></rect></clipPath><linearGradient x1="127.69123" y1="149.69015" x2="127.69123" y2="336.72843" gradientUnits="userSpaceOnUse" id="color-2"><stop offset="0" stop-color="#161d1d"></stop><stop offset="1" stop-color="#304040"></stop></linearGradient></defs><g data-paper-data="{&quot;description&quot;:&quot;Logo for KoreaPCBang\n====================\n\nThis logo was generated by MarkMaker at http://emblemmatic.org/markmaker/ and may be composed of elements designed by others.\n\nThe font is Sarpanch Bold designed by Indian Type Foundry and released under the OFL license via Google Fonts: https://www.google.com/fonts/specimen/Sarpanch. The font includes this copyright statement: Copyright (c) 2014 Indian Type Foundry (info@indiantypefoundry.com)\n\nThe symbol is 'archive' designed by Iconathon and released into the public domain at the Noun Project: https://thenounproject.com/term/archive/21033.\n\nMarkMaker uses semantic data from the Princeton University WordNet database http://wordnet.princeton.edu and font descriptions from Google Fonts https://www.google.com/fonts.&quot;}" fill="none" fill-rule="nonzero" stroke="none" stroke-width="none" stroke-linecap="butt" stroke-linejoin="miter" stroke-miterlimit="10" stroke-dasharray="" stroke-dashoffset="0" font-family="none" font-weight="none" font-size="none" text-anchor="none" style="mix-blend-mode: normal"><path d="M90,367.46716v-275.55467h320v275.55467z" fill="none" stroke="#232f2f" stroke-width="3.5"></path><g data-paper-data="{&quot;elementType&quot;:&quot;logo&quot;}" fill="url(#color-1)" stroke="none" stroke-width="1"><g data-paper-data="{&quot;elementType&quot;:&quot;text&quot;}"><g data-paper-data="{&quot;baseline&quot;:62.2,&quot;elementType&quot;:&quot;row&quot;}"><g data-paper-data="{&quot;baselineProportion&quot;:0.8152031454783749,&quot;fontSize&quot;:100,&quot;baseline&quot;:62.2,&quot;elementType&quot;:&quot;word&quot;}"><path d="M70.46534,370.9088h8.67341l-12.23048,14.81301l12.66902,15.49519h-8.77086l-12.32793,-15.49519l11.98684,-14.81301M50,370.9088h7.69887v30.3082h-7.69887z" data-paper-data="{&quot;elementType&quot;:&quot;letter&quot;,&quot;baseline&quot;:62.2,&quot;baselineProportion&quot;:1,&quot;fontSize&quot;:100}"></path><path d="M93.80558,377.5844h17.29809c2.56629,0 3.84943,1.28314 3.84943,3.84943v15.93373c0,2.56629 -1.28314,3.84943 -3.84943,3.84943h-17.29809c-2.56629,0 -3.84943,-1.28314 -3.84943,-3.84943v-15.93373c0,-2.56629 1.28314,-3.84943 3.84943,-3.84943zM107.44914,396.83157v-14.86174c0,-0.61721 -0.09745,-1.02327 -0.29236,-1.21818c-0.19491,-0.19491 -0.60097,-0.29236 -1.21818,-0.29236h-6.96796c-0.64969,0 -1.06387,0.09745 -1.24254,0.29236c-0.17867,0.19491 -0.268,0.60097 -0.268,1.21818v14.86174c0,0.64969 0.08933,1.06387 0.268,1.24254c0.17867,0.17867 0.59285,0.268 1.24254,0.268h6.96796c0.61721,0 1.02327,-0.08933 1.21818,-0.268c0.19491,-0.17867 0.29236,-0.59285 0.29236,-1.24254" data-paper-data="{&quot;elementType&quot;:&quot;letter&quot;,&quot;baseline&quot;:48.5,&quot;baselineProportion&quot;:1,&quot;fontSize&quot;:100}"></path><path d="M140.43732,377.53567h3.70325v3.21598h-5.11634c-2.30641,0 -3.45962,1.23442 -3.45962,3.70325v16.76209h-7.55269v-23.6326h7.55269v2.87489c0.64969,-1.94908 2.27393,-2.92362 4.8727,-2.92362z" data-paper-data="{&quot;elementType&quot;:&quot;letter&quot;,&quot;baseline&quot;:48.6,&quot;baselineProportion&quot;:1,&quot;fontSize&quot;:100}"></path><path d="M157.83287,377.5844h17.63918c2.56629,0 3.84943,1.28314 3.84943,3.84943v9.11195h-17.83408v6.28578c0,0.64969 0.08933,1.06387 0.268,1.24254c0.17867,0.17867 0.59285,0.268 1.24254,0.268h7.40651c0.64969,0 1.06387,-0.08933 1.24254,-0.268c0.17867,-0.17867 0.268,-0.59285 0.268,-1.24254v-2.87489h7.30905v3.41089c0,2.56629 -1.28314,3.84943 -3.84943,3.84943h-17.54172c-2.56629,0 -3.84943,-1.28314 -3.84943,-3.84943v-15.93373c0,-2.56629 1.28314,-3.84943 3.84943,-3.84943zM161.48739,387.67089h10.52503v-5.70106c0,-0.61721 -0.08933,-1.02327 -0.268,-1.21818c-0.17867,-0.19491 -0.59285,-0.29236 -1.24254,-0.29236h-7.50396c-0.64969,0 -1.06387,0.09745 -1.24254,0.29236c-0.17867,0.19491 -0.268,0.60097 -0.268,1.21818v5.70106" data-paper-data="{&quot;elementType&quot;:&quot;letter&quot;,&quot;baseline&quot;:48.5,&quot;baselineProportion&quot;:1,&quot;fontSize&quot;:100}"></path><path d="M208.99622,377.5844h7.50396v23.6326h-7.50396v-1.60799c-0.38982,1.07199 -1.31563,1.60799 -2.77744,1.60799h-10.71994c-2.56629,0 -3.84943,-1.28314 -3.84943,-3.84943v-15.93373c0,-2.56629 1.28314,-3.84943 3.84943,-3.84943h10.71994c1.46181,0 2.38762,0.536 2.77744,1.60799zM200.66391,398.34211h6.57815c1.16945,0 1.75417,-0.51975 1.75417,-1.55926v-14.76428c0,-1.03951 -0.58472,-1.55926 -1.75417,-1.55926h-6.57815c-0.64969,0 -1.06387,0.09745 -1.24254,0.29236c-0.17867,0.19491 -0.268,0.60097 -0.268,1.21818v14.86174c0,0.64969 0.08933,1.06387 0.268,1.24254c0.17867,0.17867 0.59285,0.268 1.24254,0.268" data-paper-data="{&quot;elementType&quot;:&quot;letter&quot;,&quot;baseline&quot;:48.5,&quot;baselineProportion&quot;:1,&quot;fontSize&quot;:100}"></path><path d="M230.28993,370.9088h23.43769c2.56629,0 3.84943,1.28314 3.84943,3.84943v12.71775c0,2.56629 -1.28314,3.84943 -3.84943,3.84943h-15.54392v9.89158h-7.89378zM249.732,386.93999v-11.64575c0,-0.64969 -0.08933,-1.06387 -0.268,-1.24254c-0.17867,-0.17867 -0.59285,-0.268 -1.24254,-0.268h-10.03776v14.66683h10.03776c0.64969,0 1.06387,-0.09745 1.24254,-0.29236c0.17867,-0.19491 0.268,-0.60097 0.268,-1.21818" data-paper-data="{&quot;elementType&quot;:&quot;letter&quot;,&quot;baseline&quot;:62.2,&quot;baselineProportion&quot;:1,&quot;fontSize&quot;:100}"></path><path d="M296.31502,381.58001h-7.89378v-6.28578c0,-0.64969 -0.09745,-1.06387 -0.29236,-1.24254c-0.19491,-0.17867 -0.60097,-0.268 -1.21818,-0.268h-7.89378c-0.61721,0 -1.02327,0.08933 -1.21818,0.268c-0.19491,0.17867 -0.29236,0.59285 -0.29236,1.24254v21.53734c0,0.64969 0.09745,1.06387 0.29236,1.24254c0.19491,0.17867 0.60097,0.268 1.21818,0.268h7.89378c0.61721,0 1.02327,-0.08933 1.21818,-0.268c0.19491,-0.17867 0.29236,-0.59285 0.29236,-1.24254v-6.23706h7.89378v6.77305c0,2.56629 -1.28314,3.84943 -3.84943,3.84943h-19.00353c-2.56629,0 -3.84943,-1.28314 -3.84943,-3.84943v-22.60933c0,-2.56629 1.28314,-3.84943 3.84943,-3.84943h19.00353c2.56629,0 3.84943,1.28314 3.84943,3.84943z" data-paper-data="{&quot;elementType&quot;:&quot;letter&quot;,&quot;baseline&quot;:62.2,&quot;baselineProportion&quot;:1,&quot;fontSize&quot;:100}"></path><path d="M309.0815,370.9088h23.24278c2.56629,0 3.84943,1.28314 3.84943,3.84943v8.18614c0,1.98156 -0.89333,3.02107 -2.67999,3.11853c1.78666,0.16242 2.67999,1.16945 2.67999,3.02107v8.28359c0,2.56629 -1.28314,3.84943 -3.84943,3.84943h-23.24278v-30.3082M328.62103,397.0752v-8.08868c0,-0.61721 -0.08933,-1.02327 -0.268,-1.21818c-0.17867,-0.19491 -0.59285,-0.29236 -1.24254,-0.29236h-10.13522v10.86612h9.98904c0.61721,0 1.04763,-0.08933 1.29127,-0.268c0.24364,-0.17867 0.36545,-0.51163 0.36545,-0.9989M328.62103,383.09055v-7.79632c0,-0.64969 -0.08933,-1.06387 -0.268,-1.24254c-0.17867,-0.17867 -0.59285,-0.268 -1.24254,-0.268h-10.13522v10.8174h10.13522c0.64969,0 1.06387,-0.08933 1.24254,-0.268c0.17867,-0.17867 0.268,-0.59285 0.268,-1.24254z" data-paper-data="{&quot;elementType&quot;:&quot;letter&quot;,&quot;baseline&quot;:62.2,&quot;baselineProportion&quot;:1,&quot;fontSize&quot;:100}"></path><path d="M366.62809,377.5844h7.50396v23.6326h-7.50396v-1.60799c-0.38982,1.07199 -1.31563,1.60799 -2.77744,1.60799h-10.71994c-2.56629,0 -3.84943,-1.28314 -3.84943,-3.84943v-15.93373c0,-2.56629 1.28314,-3.84943 3.84943,-3.84943h10.71994c1.46181,0 2.38762,0.536 2.77744,1.60799zM358.29577,398.34211h6.57815c1.16945,0 1.75417,-0.51975 1.75417,-1.55926v-14.76428c0,-1.03951 -0.58472,-1.55926 -1.75417,-1.55926h-6.57815c-0.64969,0 -1.06387,0.09745 -1.24254,0.29236c-0.17867,0.19491 -0.268,0.60097 -0.268,1.21818v14.86174c0,0.64969 0.08933,1.06387 0.268,1.24254c0.17867,0.17867 0.59285,0.268 1.24254,0.268" data-paper-data="{&quot;elementType&quot;:&quot;letter&quot;,&quot;baseline&quot;:48.5,&quot;baselineProportion&quot;:1,&quot;fontSize&quot;:100}"></path><path d="M397.8621,377.5844h10.71994c2.56629,0 3.84943,1.28314 3.84943,3.84943v19.78316h-7.55269v-19.24717c0,-0.61721 -0.09745,-1.02327 -0.29236,-1.21818c-0.19491,-0.19491 -0.60097,-0.29236 -1.21818,-0.29236h-6.52942c-1.13696,0 -1.70545,0.51975 -1.70545,1.55926v1.46181h-0.04873v17.73663h-7.55269v-23.6326h7.55269v1.60799c0.38982,-1.07199 1.31563,-1.60799 2.77744,-1.60799z" data-paper-data="{&quot;elementType&quot;:&quot;letter&quot;,&quot;baseline&quot;:48.5,&quot;baselineProportion&quot;:1,&quot;fontSize&quot;:100}"></path><path d="M449.95127,399.99882h0.04873v4.23925c0,2.56629 -1.28314,3.84943 -3.84943,3.84943h-19.88062v-2.87489h14.66683c0.64969,0 1.06387,-0.09745 1.24254,-0.29236c0.17867,-0.19491 0.268,-0.60097 0.268,-1.21818v-4.09307c-0.38982,1.07199 -1.31563,1.60799 -2.77744,1.60799h-10.71994c-2.56629,0 -3.84943,-1.28314 -3.84943,-3.84943v-15.93373c0,-2.56629 1.28314,-3.84943 3.84943,-3.84943h10.71994c1.46181,0 2.38762,0.536 2.77744,1.60799v-1.60799h7.50396zM434.115,398.34211h6.57815c1.16945,0 1.75417,-0.51975 1.75417,-1.55926v-14.76428c0,-1.03951 -0.58472,-1.55926 -1.75417,-1.55926h-6.57815c-0.64969,0 -1.06387,0.09745 -1.24254,0.29236c-0.17867,0.19491 -0.268,0.60097 -0.268,1.21818v14.86174c0,0.64969 0.08933,1.06387 0.268,1.24254c0.17867,0.17867 0.59285,0.268 1.24254,0.268" data-paper-data="{&quot;elementType&quot;:&quot;letter&quot;,&quot;baseline&quot;:48.5,&quot;baselineProportion&quot;:0.7747603833865815,&quot;fontSize&quot;:100}"></path></g></g></g></g><g clip-path="url(#clip-1)" data-paper-data="{&quot;elementType&quot;:&quot;emblem&quot;}" fill="url(#color-2)" stroke="none" stroke-width="1"><path d="M334,204.03383v-18.34368c0,-2.20992 -1.78944,-4.00128 -3.99936,-4.00128h-8.00064v-12c0,-2.20992 -1.78944,-3.99936 -3.99936,-3.99936h-8.00064v-12c0,-2.20992 -1.78944,-3.99936 -3.99936,-3.99936h-36c-1.06368,0 -2.07936,0.4224 -2.83008,1.1712l-10.82688,10.8288h-62.34432c-2.21184,0 -3.99936,1.78944 -3.99936,3.99936v12h-8.00064c-2.21184,0 -3.99936,1.78944 -3.99936,3.99936v12h-8.00064c-2.21184,0 -3.99936,1.79136 -3.99936,4.00128v7.31904l-12,10.9152v93.76512h192v-93.65568zM198.00064,169.68887h60c1.06176,0 2.07744,-0.4224 2.82816,-1.1712l10.8288,-10.8288h30.34368v8.00064h-20.00064c-1.06368,0 -2.07936,0.4224 -2.83008,1.1712l-10.8288,10.8288h-70.34112zM186.00064,185.69015h84c1.06176,0 2.07744,-0.4224 2.82816,-1.1712l10.8288,-10.8288h30.34368v7.99872h-20.00064c-1.06368,0 -2.07936,0.4224 -2.83008,1.1712l-10.8288,10.8288h-94.34112zM174.00064,201.68951h108c1.06176,0 2.07744,-0.4224 2.82816,-1.1712l10.8288,-10.8288h30.34368v20.00064h-152.00064zM337.99936,301.68887h-175.99872v-79.99872h176.00064v79.99872z"></path><path d="M282.00064,257.69015h-60v-28.00128h60zM229.99936,249.68951h44.00064v-12h-44.00064z"></path><path d="M262,273.68951c0,-4.42176 -3.57696,-8.00064 -8.00064,-8.00064c-4.42368,0 -8.00064,3.57888 -8.00064,8.00064c0,2.69568 1.33632,5.06304 3.37152,6.5088l-3.3696,13.49184h15.99936l-3.37152,-13.49184c2.03712,-1.44576 3.37152,-3.81312 3.37152,-6.5088z"></path></g></g></svg>