<svg version="1.1" xmlns="http://www.w3.org/2000/svg" xmlns:xlink="http://www.w3.org/1999/xlink" width="500" height="500"><defs><linearGradient x1="250" y1="50" x2="250" y2="450" gradientUnits="userSpaceOnUse" id="color-1"><stop offset="0" stop-color="#2c2c2c"></stop><stop offset="1" stop-color="#2c2c2c"></stop></linearGradient><clipPath id="clip-1"><rect x="92.9196" y="57.58392" transform="scale(1.81265,1.81265)" width="90" height="90"></rect></clipPath></defs><g data-paper-data="{&quot;description&quot;:&quot;Logo for KoreaPCBang\n====================\n\nThis logo was generated by MarkMaker at http://emblemmatic.org/markmaker/ and may be composed of elements designed by others.\n\nThe font is Marvel designed by Carolina Trebol and released under the OFL license via Google Fonts: https://www.google.com/fonts/specimen/Marvel. The font includes this copyright statement: Copyright (c) 2011, Carolina Trebol <ca@fromzero.org>, with Reserved Font Name \\\&quot;Marvel\\\&quot;.\n\nThe symbol is 'bunny' designed by Stefania Bonacasa and released into the public domain at the Noun Project: https://thenounproject.com/term/bunny/136632.\n\nMarkMaker uses semantic data from the Princeton University WordNet database http://wordnet.princeton.edu and font descriptions from Google Fonts https://www.google.com/fonts.&quot;}" fill="none" fill-rule="nonzero" stroke="none" stroke-width="none" stroke-linecap="butt" stroke-linejoin="miter" stroke-miterlimit="10" stroke-dasharray="" stroke-dashoffset="0" font-family="none" font-weight="none" font-size="none" text-anchor="none" style="mix-blend-mode: normal"><path d="M114.05123,321.89754v-271.89754h271.89754v271.89754z" fill="#2c2c2c" stroke-width="0"></path><g data-paper-data="{&quot;elementType&quot;:&quot;logo&quot;}" fill="url(#color-1)" stroke-width="1"><g data-paper-data="{&quot;elementType&quot;:&quot;text&quot;}"><g data-paper-data="{&quot;baseline&quot;:71,&quot;elementType&quot;:&quot;row&quot;}"><g data-paper-data="{&quot;baselineProportion&quot;:0.7327141382868937,&quot;fontSize&quot;:100,&quot;baseline&quot;:71,&quot;elementType&quot;:&quot;word&quot;}"><path d="M97.16786,430.3116l-10.71839,-24.24942h-2.12848v24.24942h-4.25695v-53.21189h4.25695v24.40145h2.05246l10.94645,-24.24942h4.71305l-11.6306,26.60594l11.47856,26.45391z" data-paper-data="{&quot;elementType&quot;:&quot;letter&quot;,&quot;baseline&quot;:70,&quot;baselineProportion&quot;:1,&quot;fontSize&quot;:100}"></path><path d="M130.53931,419.89728c0,2.33119 -0.43076,4.20627 -1.29229,5.62526c-0.86153,1.41898 -1.90042,2.52123 -3.1167,3.30674c-1.21627,0.78551 -2.48322,1.30496 -3.80085,1.55835c-1.31763,0.25339 -2.45788,0.38008 -3.42076,0.38008c-0.96288,0 -2.10314,-0.12669 -3.42076,-0.38008c-1.31763,-0.25339 -2.58458,-0.77284 -3.80085,-1.55835c-1.21627,-0.78551 -2.25517,-1.88776 -3.1167,-3.30674c-0.86153,-1.41898 -1.29229,-3.29407 -1.29229,-5.62526v-17.55992c0,-2.33119 0.43076,-4.20627 1.29229,-5.62526c0.86153,-1.41898 1.90042,-2.50856 3.1167,-3.26873c1.21627,-0.76017 2.48322,-1.26695 3.80085,-1.52034c1.31763,-0.25339 2.45788,-0.38008 3.42076,-0.38008c0.96288,0 2.10314,0.12669 3.42076,0.38008c1.31763,0.25339 2.58458,0.76017 3.80085,1.52034c1.21627,0.76017 2.25517,1.84975 3.1167,3.26873c0.86153,1.41898 1.29229,3.29407 1.29229,5.62526zM127.04253,419.36516v-16.49569c0,-1.67237 -0.30407,-3.00267 -0.9122,-3.99089c-0.60814,-0.98822 -1.3303,-1.74839 -2.16648,-2.28051c-0.83619,-0.53212 -1.72305,-0.88686 -2.66059,-1.06424c-0.93754,-0.17737 -1.73572,-0.26606 -2.39453,-0.26606c-0.65881,0 -1.45699,0.08869 -2.39453,0.26606c-0.93754,0.17737 -1.83708,0.53212 -2.6986,1.06424c-0.86153,0.53212 -1.59636,1.29229 -2.20449,2.28051c-0.60814,0.98822 -0.9122,2.31852 -0.9122,3.99089v16.49569c0,1.67237 0.30407,3.00267 0.9122,3.99089c0.60814,0.98822 1.34297,1.76106 2.20449,2.31852c0.86153,0.55746 1.76106,0.92487 2.6986,1.10225c0.93754,0.17737 1.73572,0.26606 2.39453,0.26606c0.65881,0 1.45699,-0.08869 2.39453,-0.26606c0.93754,-0.17737 1.82441,-0.54479 2.66059,-1.10225c0.83619,-0.55746 1.55835,-1.3303 2.16648,-2.31852c0.60814,-0.98822 0.9122,-2.31852 0.9122,-3.99089" data-paper-data="{&quot;elementType&quot;:&quot;letter&quot;,&quot;baseline&quot;:51,&quot;baselineProportion&quot;:0.9883720930232559,&quot;fontSize&quot;:100}"></path><path d="M159.34975,394.58362l-2.12848,3.19271c-0.86153,-0.50678 -1.57102,-0.89953 -2.12848,-1.17826c-0.55746,-0.27873 -1.07691,-0.49411 -1.55835,-0.64614c-0.48144,-0.15203 -0.93754,-0.24072 -1.36831,-0.26606c-0.43076,-0.02534 -0.89953,-0.03801 -1.40631,-0.03801c-0.76017,0 -1.79907,0.21538 -3.1167,0.64614c-1.31763,0.43076 -2.63526,1.25428 -3.95288,2.47055v31.47103h-3.80085v-33.59951l-1.97644,-1.97644l2.66059,-2.73661l2.66059,2.58458c1.46966,-1.31763 2.87598,-2.14115 4.21894,-2.47055c1.34297,-0.32941 2.49589,-0.49411 3.45877,-0.49411c1.01356,0 2.12848,0.20271 3.34475,0.60814c1.21627,0.40542 2.91398,1.21627 5.09314,2.43254z" data-paper-data="{&quot;elementType&quot;:&quot;letter&quot;,&quot;baseline&quot;:51,&quot;baselineProportion&quot;:1.0019646365422397,&quot;fontSize&quot;:100}"></path><path d="M163.83475,402.33735c0,-1.52034 0.26606,-2.93932 0.79818,-4.25695c0.53212,-1.31763 1.26695,-2.45788 2.20449,-3.42076c0.93754,-0.96288 2.02712,-1.72305 3.26873,-2.28051c1.24161,-0.55746 2.59725,-0.83619 4.06691,-0.83619h2.58458c1.41898,0 2.76195,0.27873 4.0289,0.83619c1.26695,0.55746 2.38187,1.31763 3.34475,2.28051c0.96288,0.96288 1.71038,2.10314 2.2425,3.42076c0.53212,1.31763 0.79818,2.73661 0.79818,4.25695v2.50856c0,2.12848 -0.38008,3.91487 -1.14025,5.3592c-0.76017,1.44432 -1.79907,2.62259 -3.1167,3.53479c-1.31763,0.9122 -2.85064,1.55835 -4.59903,1.93843c-1.74839,0.38008 -3.61081,0.57013 -5.58725,0.57013c-0.81085,0 -1.6217,-0.02534 -2.43254,-0.07602c-0.81085,-0.05068 -1.64703,-0.12669 -2.50856,-0.22805v4.56102c0.35475,2.02712 1.30496,3.63615 2.85064,4.82708c1.54568,1.19093 3.30674,1.7864 5.28318,1.7864c0.20271,0 0.84886,-0.11403 1.93843,-0.34208c1.08958,-0.22805 2.2425,-0.46877 3.45877,-0.72216c1.41898,-0.30407 2.99,-0.65881 4.71305,-1.06424l0.9122,4.0289c-1.87509,0.40542 -3.5728,0.73483 -5.09314,0.98822c-1.31763,0.25339 -2.57191,0.48144 -3.76284,0.68415c-1.19093,0.20271 -1.91309,0.30407 -2.16648,0.30407c-1.6217,0 -3.16737,-0.2914 -4.63704,-0.8742c-1.46966,-0.5828 -2.76195,-1.40631 -3.87687,-2.47055c-1.11492,-1.06424 -1.98911,-2.31852 -2.62259,-3.76284c-0.63347,-1.44432 -0.95021,-3.02801 -0.95021,-4.75106zM176.75764,411.99151h0.15203c0.9122,0 1.74839,-0.19004 2.50856,-0.57013c0.76017,-0.38008 1.41898,-0.88686 1.97644,-1.52034c0.55746,-0.63347 1.00089,-1.35564 1.3303,-2.16648c0.32941,-0.81085 0.49411,-1.67237 0.49411,-2.58458v-3.19271c0,-1.21627 -0.22805,-2.2425 -0.68415,-3.07869c-0.4561,-0.83619 -1.05157,-1.50767 -1.7864,-2.01445c-0.73483,-0.50678 -1.59636,-0.8742 -2.58458,-1.10225c-0.98822,-0.22805 -2.01445,-0.34208 -3.07869,-0.34208c-0.96288,0 -1.88776,0.15203 -2.77462,0.4561c-0.88686,0.30407 -1.6597,0.73483 -2.31852,1.29229c-0.65881,0.55746 -1.19093,1.24161 -1.59636,2.05246c-0.40542,0.81085 -0.60814,1.72305 -0.60814,2.73661v9.95822l8.97,0.07602" data-paper-data="{&quot;elementType&quot;:&quot;letter&quot;,&quot;baseline&quot;:51,&quot;baselineProportion&quot;:0.9826589595375721,&quot;fontSize&quot;:100}"></path><path d="M216.81859,426.58677l1.44432,1.36831l-2.73661,2.73661l-2.05246,-2.05246c-1.6217,0.9122 -3.30674,1.54568 -5.05513,1.90042c-1.74839,0.35475 -3.12937,0.53212 -4.14293,0.53212c-1.41898,0 -2.74928,-0.2914 -3.99089,-0.8742c-1.24161,-0.5828 -2.31852,-1.36831 -3.23072,-2.35653c-0.9122,-0.98822 -1.6217,-2.14115 -2.12848,-3.45877c-0.50678,-1.31763 -0.76017,-2.71127 -0.76017,-4.18093v-4.25695c0,-1.46966 0.25339,-2.85064 0.76017,-4.14293c0.50678,-1.29229 1.21627,-2.41987 2.12848,-3.38276c0.9122,-0.96288 1.98911,-1.72305 3.23072,-2.28051c1.24161,-0.55746 2.57191,-0.83619 3.99089,-0.83619c0.35475,0 0.89953,0.02534 1.63437,0.07602c0.73483,0.05068 1.52034,0.15203 2.35653,0.30407c0.83619,0.15203 1.68504,0.36742 2.54657,0.64614c0.86153,0.27873 1.59636,0.64614 2.20449,1.10225v-2.58458c0,-1.16559 -0.21538,-2.31852 -0.64614,-3.45877c-0.43076,-1.14025 -1.00089,-2.16648 -1.71038,-3.07869c-0.70949,-0.9122 -1.54568,-1.64703 -2.50856,-2.20449c-0.96288,-0.55746 -2.00178,-0.83619 -3.1167,-0.83619c-0.40542,0 -1.12759,0.12669 -2.16648,0.38008c-1.0389,0.25339 -2.11581,0.50678 -3.23072,0.76017c-1.31763,0.30407 -2.73661,0.65881 -4.25695,1.06424l-1.06424,-3.5728c1.67237,-0.40542 3.21805,-0.78551 4.63704,-1.14025c1.21627,-0.30407 2.4072,-0.5828 3.5728,-0.83619c1.16559,-0.25339 2.00178,-0.38008 2.50856,-0.38008c1.6217,0 3.14204,0.38008 4.56102,1.14025c1.41898,0.76017 2.66059,1.76106 3.72483,3.00267c1.06424,1.24161 1.90042,2.66059 2.50856,4.25695c0.60814,1.59636 0.9122,3.23072 0.9122,4.9031zM212.94172,411.83947c0,-0.05068 -0.22805,-0.21538 -0.68415,-0.49411c-0.4561,-0.27873 -1.07691,-0.5828 -1.86242,-0.9122c-0.78551,-0.32941 -1.71038,-0.63347 -2.77462,-0.9122c-1.06424,-0.27873 -2.17915,-0.41809 -3.34475,-0.41809c-0.86153,0 -1.68504,0.17737 -2.47055,0.53212c-0.78551,0.35475 -1.45699,0.83619 -2.01445,1.44432c-0.55746,0.60814 -1.00089,1.30496 -1.3303,2.09047c-0.32941,0.78551 -0.49411,1.63437 -0.49411,2.54657v4.78907c0,0.9122 0.1647,1.76106 0.49411,2.54657c0.32941,0.78551 0.77284,1.46966 1.3303,2.05246c0.55746,0.5828 1.21627,1.05157 1.97644,1.40631c0.76017,0.35475 1.57102,0.53212 2.43254,0.53212c0.76017,0 1.63437,-0.13936 2.62259,-0.41809c0.98822,-0.27873 1.93843,-0.59547 2.85064,-0.95021c1.06424,-0.40542 2.15381,-0.86153 3.26873,-1.36831v-12.46679" data-paper-data="{&quot;elementType&quot;:&quot;letter&quot;,&quot;baseline&quot;:51,&quot;baselineProportion&quot;:0.9807692307692307,&quot;fontSize&quot;:100}"></path><path d="M240.30783,376.33954c2.0778,0 4.07958,0.36742 6.00534,1.10225c1.92576,0.73483 3.62348,1.7864 5.09314,3.1547c1.46966,1.36831 2.63526,3.02801 3.49678,4.97911c0.86153,1.9511 1.29229,4.11759 1.29229,6.49945c0,2.43254 -0.40542,4.66237 -1.21627,6.68949c-0.81085,2.02712 -1.92576,3.76284 -3.34475,5.20716c-1.41898,1.44432 -3.10403,2.57191 -5.05513,3.38276c-1.9511,0.81085 -4.06691,1.21627 -6.34742,1.21627h-9.04602v21.74086h-4.0289v-51.0074c1.31763,-0.50678 2.71127,-0.98822 4.18093,-1.44432c1.26695,-0.40542 2.67326,-0.76017 4.21894,-1.06424c1.54568,-0.30407 3.12937,-0.4561 4.75106,-0.4561zM239.6997,380.74853c-0.9122,0 -1.84975,0.11403 -2.81263,0.34208c-0.96288,0.22805 -1.87509,0.46877 -2.73661,0.72216c-0.96288,0.30407 -1.92576,0.63347 -2.88865,0.98822v21.36077h8.43789c3.64882,0 6.58814,-1.01356 8.81797,-3.04068c2.22983,-2.02712 3.34475,-5.04246 3.34475,-9.04602c0,-3.95288 -1.12759,-6.82886 -3.38276,-8.62793c-2.25517,-1.79907 -5.18182,-2.6986 -8.77996,-2.6986" data-paper-data="{&quot;elementType&quot;:&quot;letter&quot;,&quot;baseline&quot;:71,&quot;baselineProportion&quot;:1,&quot;fontSize&quot;:100}"></path><path d="M267.902,416.02041c0,1.6217 0.27873,3.09136 0.83619,4.40898c0.55746,1.31763 1.29229,2.43254 2.20449,3.34475c0.9122,0.9122 1.97644,1.63437 3.19271,2.16648c1.21627,0.53212 2.48322,0.82352 3.80085,0.8742c0.40542,0 0.82352,-0.03801 1.25428,-0.11403c0.43076,-0.07602 0.98822,-0.24072 1.67237,-0.49411c0.68415,-0.25339 1.57102,-0.59547 2.66059,-1.02623c1.08958,-0.43076 2.52123,-1.00089 4.29496,-1.71038l1.67237,4.33297l-6.15738,2.20449c-0.86153,0.30407 -1.79907,0.55746 -2.81263,0.76017c-1.01356,0.20271 -1.87509,0.30407 -2.58458,0.30407c-1.92576,0 -3.7375,-0.34208 -5.43521,-1.02623c-1.69771,-0.68415 -3.19271,-1.6597 -4.485,-2.92665c-1.29229,-1.26695 -2.31852,-2.79996 -3.07869,-4.59903c-0.76017,-1.79907 -1.14025,-3.83886 -1.14025,-6.11937v-0.76017v-23.79332c0,-2.12848 0.36742,-4.11759 1.10225,-5.96733c0.73483,-1.84975 1.55835,-3.25606 2.47055,-4.21894c0.9122,-1.01356 1.64703,-1.76106 2.20449,-2.2425c0.55746,-0.48144 1.14025,-0.89953 1.74839,-1.25428c0.50678,-0.25339 1.26695,-0.62081 2.28051,-1.10225c1.01356,-0.48144 2.50856,-0.72216 4.485,-0.72216c0.70949,0 1.57102,0.12669 2.58458,0.38008c1.01356,0.25339 1.92576,0.50678 2.73661,0.76017l5.92932,2.35653l-1.36831,3.95288l-6.61348,-2.58458c-0.50678,-0.20271 -1.0389,-0.38008 -1.59636,-0.53212c-0.55746,-0.15203 -1.08958,-0.22805 -1.59636,-0.22805c-1.36831,0 -2.66059,0.31674 -3.87687,0.95021c-1.21627,0.63347 -2.29318,1.48233 -3.23072,2.54657c-0.93754,1.06424 -1.67237,2.28051 -2.20449,3.64882c-0.53212,1.36831 -0.79818,2.78729 -0.79818,4.25695z" data-paper-data="{&quot;elementType&quot;:&quot;letter&quot;,&quot;baseline&quot;:71,&quot;baselineProportion&quot;:0.9861111111111112,&quot;fontSize&quot;:100}"></path><path d="M310.16744,376.33954c1.82441,0 3.16737,0.22805 4.0289,0.68415c0.86153,0.4561 1.41898,0.76017 1.67237,0.9122c1.16559,0.70949 2.25517,1.68504 3.26873,2.92665c1.01356,1.24161 1.82441,2.72394 2.43254,4.44699c0.60814,1.72305 0.9122,3.52212 0.9122,5.39721c0,2.28051 -0.27873,4.51034 -0.83619,6.68949c-0.55746,2.17915 -1.90042,4.1556 -4.0289,5.92932c1.36831,0.9122 2.47055,1.86242 3.30674,2.85064c0.83619,0.98822 1.48233,1.98911 1.93843,3.00267c0.4561,1.01356 0.77284,2.0778 0.95021,3.19271c0.17737,1.11492 0.26606,2.28051 0.26606,3.49678c0,1.97644 -0.25339,3.83886 -0.76017,5.58725c-0.50678,1.74839 -1.07691,3.02801 -1.71038,3.83886c-0.63347,0.81085 -1.07691,1.36831 -1.3303,1.67237c-0.9122,0.9122 -2.03979,1.69771 -3.38276,2.35653c-1.34297,0.65881 -3.07869,0.98822 -5.20716,0.98822h-13.83509v-51.0074c1.92576,-0.76017 3.61081,-1.34297 5.05513,-1.74839c1.44432,-0.40542 2.47055,-0.65881 3.07869,-0.76017c1.46966,-0.30407 2.86331,-0.4561 4.18093,-0.4561zM302.10964,405.45405v20.44857h9.57814c1.52034,0 2.78729,-0.26606 3.80085,-0.79818c1.01356,-0.53212 1.82441,-1.25428 2.43254,-2.16648c0.60814,-0.9122 1.0389,-1.97644 1.29229,-3.19271c0.25339,-1.21627 0.38008,-2.50856 0.38008,-3.87687c0,-1.41898 -0.12669,-2.76195 -0.38008,-4.0289c-0.25339,-1.26695 -0.68415,-2.3692 -1.29229,-3.30674c-0.60814,-0.93754 -1.41898,-1.68504 -2.43254,-2.2425c-1.01356,-0.55746 -2.28051,-0.83619 -3.80085,-0.83619h-9.57814M317.84516,391.01082c-0.05068,-1.36831 -0.27873,-2.67326 -0.68415,-3.91487c-0.40542,-1.24161 -0.88686,-2.2425 -1.44432,-3.00267c-0.55746,-0.76017 -1.11492,-1.36831 -1.67237,-1.82441c-0.10136,-0.10136 -0.22805,-0.17737 -0.38008,-0.22805c-0.05068,0 -0.07602,-0.02534 -0.07602,-0.07602c-0.05068,0 -0.10136,-0.02534 -0.15203,-0.07602c-0.25339,-0.15203 -0.64614,-0.38008 -1.17826,-0.68415c-0.53212,-0.30407 -1.43165,-0.4561 -2.6986,-0.4561c-0.50678,0 -1.34297,0.10136 -2.50856,0.30407c-1.16559,0.20271 -2.81263,0.76017 -4.9411,1.67237v18.32009h7.82975c1.52034,0 2.78729,-0.26606 3.80085,-0.79818c1.01356,-0.53212 1.82441,-1.25428 2.43254,-2.16648c0.60814,-0.9122 1.0389,-1.97644 1.29229,-3.19271c0.25339,-1.21627 0.38008,-2.50856 0.38008,-3.87687" data-paper-data="{&quot;elementType&quot;:&quot;letter&quot;,&quot;baseline&quot;:71,&quot;baselineProportion&quot;:1,&quot;fontSize&quot;:100}"></path><path d="M354.10526,426.58677l1.44432,1.36831l-2.73661,2.73661l-2.05246,-2.05246c-1.6217,0.9122 -3.30674,1.54568 -5.05513,1.90042c-1.74839,0.35475 -3.12937,0.53212 -4.14293,0.53212c-1.41898,0 -2.74928,-0.2914 -3.99089,-0.8742c-1.24161,-0.5828 -2.31852,-1.36831 -3.23072,-2.35653c-0.9122,-0.98822 -1.6217,-2.14115 -2.12848,-3.45877c-0.50678,-1.31763 -0.76017,-2.71127 -0.76017,-4.18093v-4.25695c0,-1.46966 0.25339,-2.85064 0.76017,-4.14293c0.50678,-1.29229 1.21627,-2.41987 2.12848,-3.38276c0.9122,-0.96288 1.98911,-1.72305 3.23072,-2.28051c1.24161,-0.55746 2.57191,-0.83619 3.99089,-0.83619c0.35475,0 0.89953,0.02534 1.63437,0.07602c0.73483,0.05068 1.52034,0.15203 2.35653,0.30407c0.83619,0.15203 1.68504,0.36742 2.54657,0.64614c0.86153,0.27873 1.59636,0.64614 2.20449,1.10225v-2.58458c0,-1.16559 -0.21538,-2.31852 -0.64614,-3.45877c-0.43076,-1.14025 -1.00089,-2.16648 -1.71038,-3.07869c-0.70949,-0.9122 -1.54568,-1.64703 -2.50856,-2.20449c-0.96288,-0.55746 -2.00178,-0.83619 -3.1167,-0.83619c-0.40542,0 -1.12759,0.12669 -2.16648,0.38008c-1.0389,0.25339 -2.11581,0.50678 -3.23072,0.76017c-1.31763,0.30407 -2.73661,0.65881 -4.25695,1.06424l-1.06424,-3.5728c1.67237,-0.40542 3.21805,-0.78551 4.63704,-1.14025c1.21627,-0.30407 2.4072,-0.5828 3.5728,-0.83619c1.16559,-0.25339 2.00178,-0.38008 2.50856,-0.38008c1.6217,0 3.14204,0.38008 4.56102,1.14025c1.41898,0.76017 2.66059,1.76106 3.72483,3.00267c1.06424,1.24161 1.90042,2.66059 2.50856,4.25695c0.60814,1.59636 0.9122,3.23072 0.9122,4.9031zM350.22839,411.83947c0,-0.05068 -0.22805,-0.21538 -0.68415,-0.49411c-0.4561,-0.27873 -1.07691,-0.5828 -1.86242,-0.9122c-0.78551,-0.32941 -1.71038,-0.63347 -2.77462,-0.9122c-1.06424,-0.27873 -2.17915,-0.41809 -3.34475,-0.41809c-0.86153,0 -1.68504,0.17737 -2.47055,0.53212c-0.78551,0.35475 -1.45699,0.83619 -2.01445,1.44432c-0.55746,0.60814 -1.00089,1.30496 -1.3303,2.09047c-0.32941,0.78551 -0.49411,1.63437 -0.49411,2.54657v4.78907c0,0.9122 0.1647,1.76106 0.49411,2.54657c0.32941,0.78551 0.77284,1.46966 1.3303,2.05246c0.55746,0.5828 1.21627,1.05157 1.97644,1.40631c0.76017,0.35475 1.57102,0.53212 2.43254,0.53212c0.76017,0 1.63437,-0.13936 2.62259,-0.41809c0.98822,-0.27873 1.93843,-0.59547 2.85064,-0.95021c1.06424,-0.40542 2.15381,-0.86153 3.26873,-1.36831v-12.46679" data-paper-data="{&quot;elementType&quot;:&quot;letter&quot;,&quot;baseline&quot;:51,&quot;baselineProportion&quot;:0.9807692307692307,&quot;fontSize&quot;:100}"></path><path d="M385.57629,397.85235c0.60814,1.26695 0.96288,2.54657 1.06424,3.83886c0.10136,1.29229 0.15203,2.62259 0.15203,3.99089v24.6295h-4.0289v-26.98603c0,-2.58458 -0.68415,-4.56102 -2.05246,-5.92932c-1.36831,-1.36831 -2.91398,-2.05246 -4.63704,-2.05246c-0.96288,0 -2.19182,0.15203 -3.68682,0.4561c-1.495,0.30407 -3.18004,1.06424 -5.05513,2.28051v32.2312h-3.87687v-34.28366l-1.67237,-1.59636l2.73661,-2.73661l2.28051,2.28051c2.78729,-1.57102 5.42254,-2.35653 7.90577,-2.35653c2.28051,0 4.40898,0.46877 6.38543,1.40631c1.97644,0.93754 3.47144,2.54657 4.485,4.82708z" data-paper-data="{&quot;elementType&quot;:&quot;letter&quot;,&quot;baseline&quot;:50.900000000000006,&quot;baselineProportion&quot;:1,&quot;fontSize&quot;:100}"></path><path d="M418.26359,439.20559c0,1.87509 -0.31674,3.49678 -0.95021,4.86509c-0.63347,1.36831 -1.48233,2.48322 -2.54657,3.34475c-1.06424,0.86153 -2.31852,1.50767 -3.76284,1.93843c-1.44432,0.43076 -2.97733,0.64614 -4.59903,0.64614c-0.76017,0 -1.74839,-0.12669 -2.96466,-0.38008c-1.21627,-0.25339 -2.4072,-0.53212 -3.5728,-0.83619c-1.36831,-0.35475 -2.78729,-0.76017 -4.25695,-1.21627l1.06424,-3.5728c1.36831,0.4561 2.71127,0.86153 4.0289,1.21627c1.06424,0.30407 2.14115,0.57013 3.23072,0.79818c1.08958,0.22805 1.91309,0.34208 2.47055,0.34208c2.17915,0 4.06691,-0.5828 5.66327,-1.74839c1.59636,-1.16559 2.39453,-2.93932 2.39453,-5.32119v-10.18628c-1.77373,0.9122 -3.31941,1.45699 -4.63704,1.63437c-1.31763,0.17737 -2.4072,0.26606 -3.26873,0.26606h-0.83619c-1.41898,0 -2.73661,-0.27873 -3.95288,-0.83619c-1.21627,-0.55746 -2.28051,-1.3303 -3.19271,-2.31852c-0.9122,-0.98822 -1.63437,-2.12848 -2.16648,-3.42076c-0.53212,-1.29229 -0.79818,-2.67326 -0.79818,-4.14293v-18.01602c0,-1.46966 0.26606,-2.86331 0.79818,-4.18093c0.53212,-1.31763 1.25428,-2.45788 2.16648,-3.42076c0.9122,-0.96288 1.97644,-1.72305 3.19271,-2.28051c1.21627,-0.55746 2.5339,-0.83619 3.95288,-0.83619c1.16559,0 2.52123,0.1647 4.06691,0.49411c1.54568,0.32941 3.25606,0.92487 5.13115,1.7864l2.28051,-2.28051l2.73661,2.73661l-1.67237,1.59636zM414.38672,398.15642c-0.15203,-0.4561 -0.60814,-0.84886 -1.36831,-1.17826c-0.76017,-0.32941 -1.60903,-0.60814 -2.54657,-0.83619c-0.93754,-0.22805 -1.86242,-0.40542 -2.77462,-0.53212c-0.9122,-0.12669 -1.59636,-0.19004 -2.05246,-0.19004c-0.86153,0 -1.67237,0.17737 -2.43254,0.53212c-0.76017,0.35475 -1.41898,0.82352 -1.97644,1.40631c-0.55746,0.5828 -1.00089,1.26695 -1.3303,2.05246c-0.32941,0.78551 -0.49411,1.63437 -0.49411,2.54657v18.54814c0,1.82441 0.60814,3.38276 1.82441,4.67504c1.21627,1.29229 2.71127,1.93843 4.485,1.93843c0.4561,0 1.07691,-0.06335 1.86242,-0.19004c0.78551,-0.12669 1.6217,-0.30407 2.50856,-0.53212c0.88686,-0.22805 1.72305,-0.50678 2.50856,-0.83619c0.78551,-0.32941 1.38098,-0.69682 1.7864,-1.10225v-26.30188" data-paper-data="{&quot;elementType&quot;:&quot;letter&quot;,&quot;baseline&quot;:51,&quot;baselineProportion&quot;:0.6631989596879063,&quot;fontSize&quot;:100}"></path></g></g></g></g><g clip-path="url(#clip-1)" data-paper-data="{&quot;elementType&quot;:&quot;emblem&quot;}" fill="#ffffff" stroke-width="1"><path d="M288.06566,185.76751c-1.26886,-2.71898 -4.1691,-8.33819 -5.07542,-9.24452c-0.5438,-0.36253 -1.63139,-1.63139 -3.6253,-10.33211c-1.08759,-4.71289 -1.81265,-9.60705 -1.99392,-12.32602c-0.36253,-5.07542 -2.71898,-10.15084 -3.44404,-11.4197c-1.08759,-1.63139 -4.35036,-5.98175 -4.35036,-5.98175l-1.45012,-1.99392c-0.72506,-0.18127 -1.26886,-0.18127 -1.63139,-0.18127c-4.71289,0 -13.41361,1.81265 -15.58879,1.81265c-2.17518,0 -12.68855,-1.81265 -17.40144,-1.81265c-0.5438,0 -1.08759,0 -1.63139,0.18127l-1.45012,1.99392c0,0 -3.44404,4.53163 -4.35036,5.98175c-0.90633,1.26886 -3.26277,6.34428 -3.44404,11.4197c-0.18127,2.71898 -0.90633,7.61313 -1.99392,12.32602c-1.81265,8.70072 -3.08151,9.78831 -3.6253,10.33211c-0.90633,0.90633 -3.98783,6.88807 -5.07542,9.42578c0,0.18127 -0.18127,0.36253 -0.18127,0.36253l-0.72506,2.17518c0,0.18127 -0.18127,0.36253 -0.18127,0.72506c4.53163,5.98175 11.23843,13.41361 11.96349,15.40753c0.90633,2.90024 4.71289,10.69464 9.24452,11.23843c4.53163,0.5438 16.13259,-1.81265 19.03283,-1.26886c2.90024,-0.36253 12.50729,1.99392 17.22018,1.26886c4.71289,-0.72506 8.33819,-8.33819 9.24452,-11.23843c0.5438,-1.99392 7.2506,-9.24452 11.78223,-15.22626c-0.18127,-0.5438 -0.18127,-0.72506 -0.36253,-0.90633zM230.24211,175.25413c0,0 -3.80657,-1.26886 -4.35036,-3.26277c-0.5438,-1.99392 -0.18127,-4.1691 0.5438,-5.61922c0.72506,-1.26886 2.17518,-2.90024 2.17518,-2.90024c0,0 2.90024,0.18127 3.08151,3.98783c0.18127,3.80657 -1.45012,7.7944 -1.45012,7.7944zM251.26886,211.14461c0,0.5438 1.26886,1.26886 1.45012,1.45012c0.18127,0.36253 2.90024,1.45012 2.90024,1.45012h-4.71289h-4.71289c0,0 2.53771,-1.08759 2.90024,-1.45012c0.18127,-0.36253 1.45012,-1.08759 1.45012,-1.45012c0,-0.36253 0.18127,-5.80048 0,-6.16301c-0.18127,-0.36253 -5.80048,-5.43795 -5.80048,-5.43795l6.34428,3.80657l6.34428,-3.80657c0,0 -5.61922,5.07542 -5.80048,5.43795c-0.5438,0.36253 -0.36253,5.61922 -0.36253,6.16301zM275.73963,171.8101c-0.36253,2.17518 -4.35036,3.26277 -4.35036,3.26277c0,0 -1.63139,-4.1691 -1.63139,-7.7944c0.18127,-3.80657 3.08151,-3.98783 3.08151,-3.98783c0,0 1.45012,1.45012 2.17518,2.90024c0.90633,1.45012 1.26886,3.6253 0.72506,5.61922z"></path><path d="M220.63507,153.86486c0.36253,-5.25669 2.71898,-10.69464 3.80657,-12.32602c1.08759,-1.63139 4.53163,-6.16301 4.53163,-6.16301l-10.8759,5.25669c0,0 -1.63139,1.08759 -3.80657,2.35645c-3.44404,2.17518 -8.33819,5.25669 -9.24452,5.80048c-1.45012,0.72506 -17.40144,28.09608 -17.40144,29.90873c0,1.99392 -12.32602,34.25909 -12.50729,35.16542c-0.18127,0.90633 -4.89416,13.41361 -4.89416,13.41361c0,0 -1.45012,3.26277 0.90633,6.16301c1.99392,2.35645 5.07542,3.98783 7.2506,4.1691c-0.36253,-1.81265 -2.17518,-10.15084 -0.36253,-17.40144c0.18127,-0.5438 0.18127,-0.5438 8.15693,-13.41361c2.90024,-4.71289 5.80048,-9.24452 6.34428,-10.33211c0.36253,-0.5438 0.5438,-1.08759 8.33819,-5.80048c3.6253,-2.17518 7.2506,-4.35036 7.2506,-4.35036l0.18127,-0.18127l1.45012,-0.90633c1.81265,-3.6253 4.35036,-9.06325 5.61922,-10.33211c1.99392,-1.45012 4.89416,-15.77006 5.25669,-21.02674z"></path><path d="M329.75661,227.2772c0,0 -4.71289,-12.50729 -4.89416,-13.41361c-0.18127,-0.72506 -12.50729,-33.1715 -12.50729,-35.16542c0,-1.99392 -16.13259,-29.18367 -17.40144,-30.08999c-0.90633,-0.5438 -5.80048,-3.6253 -9.24452,-5.80048c-2.17518,-1.26886 -3.80657,-2.35645 -3.80657,-2.35645l-10.8759,-5.25669c0,0 3.44404,4.53163 4.53163,6.16301c1.08759,1.63139 3.44404,7.06934 3.80657,12.32602c0.36253,5.25669 3.08151,19.57662 4.89416,21.38927c1.26886,1.26886 3.98783,6.88807 5.80048,10.51337l1.45012,0.90633l0.18127,0.18127c0,0 3.6253,2.17518 7.2506,4.35036c7.7944,4.71289 7.97566,5.25669 8.33819,5.80048c0.5438,1.08759 3.44404,5.43795 6.34428,10.33211c7.97566,12.68855 7.97566,12.86982 8.15693,13.41361c1.99392,7.2506 0.18127,15.58879 -0.36253,17.40144c2.35645,-0.18127 5.43795,-1.81265 7.43187,-4.1691c2.35645,-3.08151 0.90633,-6.52554 0.90633,-6.52554z"></path><path d="M194.17037,197.54973c-0.18127,0.36253 -0.72506,1.08759 -1.26886,1.99392c-3.6253,5.80048 -12.86982,20.66421 -13.05108,21.02674c-1.99392,7.61313 0.36253,16.85765 0.36253,16.85765c0,0 0.18127,0 0.36253,-0.18127c0.18127,-0.18127 0.5438,-0.36253 0.72506,-0.5438c3.6253,-2.17518 14.5012,-9.06325 15.95132,-12.14476c1.45012,-3.08151 8.33819,-25.55837 10.8759,-33.7153c0.18127,-0.5438 0.36253,-1.08759 0.36253,-1.45012c0.18127,-0.90633 0.36253,-1.45012 0.36253,-1.45012c0,0 -0.18127,0.18127 -0.72506,0.36253c-2.53771,1.99392 -13.59488,8.51946 -13.95741,9.24452z"></path><path d="M305.82963,197.54973c-0.5438,-0.90633 -11.05717,-7.06934 -14.13867,-8.88199c-0.5438,-0.36253 -0.90633,-0.5438 -0.90633,-0.5438c0,0 0.5438,1.63139 1.26886,4.35036c2.71898,9.06325 9.06325,29.18367 10.33211,32.08391c0.36253,0.72506 1.08759,1.63139 2.17518,2.53771c1.26886,1.08759 2.90024,2.35645 4.53163,3.6253c3.44404,2.53771 7.43187,5.07542 9.42578,6.16301c0.72506,0.36253 1.08759,0.72506 1.08759,0.72506c0,0 0,0 0,-0.18127c0.36253,-1.26886 2.17518,-9.60705 0.36253,-16.67638c-0.18127,-0.5438 -12.86982,-20.66421 -14.13867,-23.20192z"></path></g></g></svg>