<svg version="1.1" xmlns="http://www.w3.org/2000/svg" xmlns:xlink="http://www.w3.org/1999/xlink" width="500" height="500"><g data-paper-data="{&quot;description&quot;:&quot;Logo for KoreaPCBang\n====================\n\nThis logo was generated by MarkMaker at http://emblemmatic.org/markmaker/ and may be composed of elements designed by others.\n\nThe font is Sarpanch Bold designed by Indian Type Foundry and released under the OFL license via Google Fonts: https://www.google.com/fonts/specimen/Sarpanch. The font includes this copyright statement: Copyright (c) 2014 Indian Type Foundry (info@indiantypefoundry.com)\n\nMarkMaker uses semantic data from the Princeton University WordNet database http://wordnet.princeton.edu and font descriptions from Google Fonts https://www.google.com/fonts.&quot;}" fill="none" fill-rule="nonzero" stroke="none" stroke-width="1" stroke-linecap="butt" stroke-linejoin="miter" stroke-miterlimit="10" stroke-dasharray="" stroke-dashoffset="0" font-family="none" font-weight="none" font-size="none" text-anchor="none" style="mix-blend-mode: normal"><g data-paper-data="{&quot;elementType&quot;:&quot;logo&quot;}"><g data-paper-data="{&quot;elementType&quot;:&quot;text&quot;}"><g data-paper-data="{&quot;baseline&quot;:62.2,&quot;elementType&quot;:&quot;row&quot;}"><g data-paper-data="{&quot;baselineProportion&quot;:0.8152031454783749,&quot;fontSize&quot;:100,&quot;baseline&quot;:62.2,&quot;elementType&quot;:&quot;word&quot;}"><path d="M74.21098,228.00836h10.26084l-14.46894,17.52414l14.98775,18.33117h-10.37613l-14.58423,-18.33117l14.18072,-17.52414M50,228.00836h9.10794v35.85531h-9.10794z" data-paper-data="{&quot;elementType&quot;:&quot;letter&quot;,&quot;baseline&quot;:62.2,&quot;baselineProportion&quot;:1,&quot;fontSize&quot;:100}" fill="#f7cbf4"></path><path d="M94.50209,235.90575h20.46404c3.03598,0 4.55397,1.51799 4.55397,4.55397v18.84998c0,3.03598 -1.51799,4.55397 -4.55397,4.55397h-20.46404c-3.03598,0 -4.55397,-1.51799 -4.55397,-4.55397v-18.84998c0,-3.03598 1.51799,-4.55397 4.55397,-4.55397zM110.64274,258.6756v-17.58178c0,-0.73017 -0.11529,-1.21055 -0.34587,-1.44113c-0.23058,-0.23058 -0.71096,-0.34587 -1.44113,-0.34587h-8.24326c-0.7686,0 -1.25859,0.11529 -1.46995,0.34587c-0.21137,0.23058 -0.31705,0.71096 -0.31705,1.44113v17.58178c0,0.7686 0.10568,1.25859 0.31705,1.46995c0.21137,0.21137 0.70135,0.31705 1.46995,0.31705h8.24326c0.73017,0 1.21055,-0.10568 1.44113,-0.31705c0.23058,-0.21137 0.34587,-0.70135 0.34587,-1.46995" data-paper-data="{&quot;elementType&quot;:&quot;letter&quot;,&quot;baseline&quot;:48.5,&quot;baselineProportion&quot;:1,&quot;fontSize&quot;:100}" fill="#8088ae"></path><path d="M142.3476,235.8481h4.38103v3.80458h-6.05275c-2.72854,0 -4.09281,1.46034 -4.09281,4.38103v19.82995h-8.93501v-27.95792h8.93501v3.40107c0.7686,-2.30581 2.69011,-3.45871 5.76452,-3.45871z" data-paper-data="{&quot;elementType&quot;:&quot;letter&quot;,&quot;baseline&quot;:48.6,&quot;baselineProportion&quot;:1,&quot;fontSize&quot;:100}" fill="#8088ae"></path><path d="M155.606,235.90575h20.86756c3.03598,0 4.55397,1.51799 4.55397,4.55397v10.77965h-21.09814v7.43623c0,0.7686 0.10568,1.25859 0.31705,1.46995c0.21137,0.21137 0.70135,0.31705 1.46995,0.31705h8.76207c0.7686,0 1.25859,-0.10568 1.46995,-0.31705c0.21137,-0.21137 0.31705,-0.70135 0.31705,-1.46995v-3.40107h8.64678v4.03516c0,3.03598 -1.51799,4.55397 -4.55397,4.55397h-20.75227c-3.03598,0 -4.55397,-1.51799 -4.55397,-4.55397v-18.84998c0,-3.03598 1.51799,-4.55397 4.55397,-4.55397zM159.92938,247.83831h12.45136v-6.74449c0,-0.73017 -0.10568,-1.21055 -0.31705,-1.44113c-0.21137,-0.23058 -0.70135,-0.34587 -1.46995,-0.34587h-8.87736c-0.7686,0 -1.25859,0.11529 -1.46995,0.34587c-0.21137,0.23058 -0.31705,0.71096 -0.31705,1.44113v6.74449" data-paper-data="{&quot;elementType&quot;:&quot;letter&quot;,&quot;baseline&quot;:48.5,&quot;baselineProportion&quot;:1,&quot;fontSize&quot;:100}" fill="#8088ae"></path><path d="M208.81251,235.90575h8.87736v27.95792h-8.87736v-1.90229c-0.46116,1.26819 -1.55642,1.90229 -3.28578,1.90229h-12.68194c-3.03598,0 -4.55397,-1.51799 -4.55397,-4.55397v-18.84998c0,-3.03598 1.51799,-4.55397 4.55397,-4.55397h12.68194c1.72936,0 2.82461,0.6341 3.28578,1.90229zM198.95518,260.4626h7.7821c1.38348,0 2.07523,-0.61488 2.07523,-1.84465v-17.46649c0,-1.22976 -0.69174,-1.84465 -2.07523,-1.84465h-7.7821c-0.7686,0 -1.25859,0.11529 -1.46995,0.34587c-0.21137,0.23058 -0.31705,0.71096 -0.31705,1.44113v17.58178c0,0.7686 0.10568,1.25859 0.31705,1.46995c0.21137,0.21137 0.70135,0.31705 1.46995,0.31705" data-paper-data="{&quot;elementType&quot;:&quot;letter&quot;,&quot;baseline&quot;:48.5,&quot;baselineProportion&quot;:1,&quot;fontSize&quot;:100}" fill="#8088ae"></path><path d="M226.68252,228.00836h27.72734c3.03598,0 4.55397,1.51799 4.55397,4.55397v15.0454c0,3.03598 -1.51799,4.55397 -4.55397,4.55397h-18.38882v11.70197h-9.33852zM249.68295,246.97363v-13.7772c0,-0.7686 -0.10568,-1.25859 -0.31705,-1.46995c-0.21137,-0.21137 -0.70135,-0.31705 -1.46995,-0.31705h-11.87491v17.3512h11.87491c0.7686,0 1.25859,-0.11529 1.46995,-0.34587c0.21137,-0.23058 0.31705,-0.71096 0.31705,-1.44113" data-paper-data="{&quot;elementType&quot;:&quot;letter&quot;,&quot;baseline&quot;:62.2,&quot;baselineProportion&quot;:1,&quot;fontSize&quot;:100}" fill="#8088ae"></path><path d="M297.47082,240.63266h-9.33852v-7.43623c0,-0.7686 -0.11529,-1.25859 -0.34587,-1.46995c-0.23058,-0.21137 -0.71096,-0.31705 -1.44113,-0.31705h-9.33852c-0.73017,0 -1.21055,0.10568 -1.44113,0.31705c-0.23058,0.21137 -0.34587,0.70135 -0.34587,1.46995v25.47918c0,0.7686 0.11529,1.25859 0.34587,1.46995c0.23058,0.21137 0.71096,0.31705 1.44113,0.31705h9.33852c0.73017,0 1.21055,-0.10568 1.44113,-0.31705c0.23058,-0.21137 0.34587,-0.70135 0.34587,-1.46995v-7.37858h9.33852v8.01268c0,3.03598 -1.51799,4.55397 -4.55397,4.55397h-22.48163c-3.03598,0 -4.55397,-1.51799 -4.55397,-4.55397v-26.74737c0,-3.03598 1.51799,-4.55397 4.55397,-4.55397h22.48163c3.03598,0 4.55397,1.51799 4.55397,4.55397z" data-paper-data="{&quot;elementType&quot;:&quot;letter&quot;,&quot;baseline&quot;:62.2,&quot;baselineProportion&quot;:1,&quot;fontSize&quot;:100}" fill="#8088ae"></path><path d="M305.25292,228.00836h27.49676c3.03598,0 4.55397,1.51799 4.55397,4.55397v9.68439c0,2.34424 -1.05683,3.574 -3.17049,3.68929c2.11366,0.19215 3.17049,1.38348 3.17049,3.574v9.79968c0,3.03598 -1.51799,4.55397 -4.55397,4.55397h-27.49676v-35.85531M328.36864,258.96383v-9.5691c0,-0.73017 -0.10568,-1.21055 -0.31705,-1.44113c-0.21137,-0.23058 -0.70135,-0.34587 -1.46995,-0.34587h-11.9902v12.85488h11.81726c0.73017,0 1.23937,-0.10568 1.5276,-0.31705c0.28823,-0.21137 0.43234,-0.60527 0.43234,-1.18173M328.36864,242.41966v-9.22323c0,-0.7686 -0.10568,-1.25859 -0.31705,-1.46995c-0.21137,-0.21137 -0.70135,-0.31705 -1.46995,-0.31705h-11.9902v12.79723h11.9902c0.7686,0 1.25859,-0.10568 1.46995,-0.31705c0.21137,-0.21137 0.31705,-0.70135 0.31705,-1.46995z" data-paper-data="{&quot;elementType&quot;:&quot;letter&quot;,&quot;baseline&quot;:62.2,&quot;baselineProportion&quot;:1,&quot;fontSize&quot;:100}" fill="#8088ae"></path><path d="M366.01095,235.90575h8.87736v27.95792h-8.87736v-1.90229c-0.46116,1.26819 -1.55642,1.90229 -3.28578,1.90229h-12.68194c-3.03598,0 -4.55397,-1.51799 -4.55397,-4.55397v-18.84998c0,-3.03598 1.51799,-4.55397 4.55397,-4.55397h12.68194c1.72936,0 2.82461,0.6341 3.28578,1.90229zM356.15362,260.4626h7.7821c1.38348,0 2.07523,-0.61488 2.07523,-1.84465v-17.46649c0,-1.22976 -0.69174,-1.84465 -2.07523,-1.84465h-7.7821c-0.7686,0 -1.25859,0.11529 -1.46995,0.34587c-0.21137,0.23058 -0.31705,0.71096 -0.31705,1.44113v17.58178c0,0.7686 0.10568,1.25859 0.31705,1.46995c0.21137,0.21137 0.70135,0.31705 1.46995,0.31705" data-paper-data="{&quot;elementType&quot;:&quot;letter&quot;,&quot;baseline&quot;:48.5,&quot;baselineProportion&quot;:1,&quot;fontSize&quot;:100}" fill="#8088ae"></path><path d="M395.64058,235.90575h12.68194c3.03598,0 4.55397,1.51799 4.55397,4.55397v23.40395h-8.93501v-22.76985c0,-0.73017 -0.11529,-1.21055 -0.34587,-1.44113c-0.23058,-0.23058 -0.71096,-0.34587 -1.44113,-0.34587h-7.72446c-1.34505,0 -2.01758,0.61488 -2.01758,1.84465v1.72936h-0.05765v20.98285h-8.93501v-27.95792h8.93501v1.90229c0.46116,-1.26819 1.55642,-1.90229 3.28578,-1.90229z" data-paper-data="{&quot;elementType&quot;:&quot;letter&quot;,&quot;baseline&quot;:48.5,&quot;baselineProportion&quot;:1,&quot;fontSize&quot;:100}" fill="#8088ae"></path><path d="M449.94235,262.42254h0.05765v5.01513c0,3.03598 -1.51799,4.55397 -4.55397,4.55397h-23.51924v-3.40107h17.3512c0.7686,0 1.25859,-0.11529 1.46995,-0.34587c0.21137,-0.23058 0.31705,-0.71096 0.31705,-1.44113v-4.8422c-0.46116,1.26819 -1.55642,1.90229 -3.28578,1.90229h-12.68194c-3.03598,0 -4.55397,-1.51799 -4.55397,-4.55397v-18.84998c0,-3.03598 1.51799,-4.55397 4.55397,-4.55397h12.68194c1.72936,0 2.82461,0.6341 3.28578,1.90229v-1.90229h8.87736zM431.20767,260.4626h7.7821c1.38348,0 2.07523,-0.61488 2.07523,-1.84465v-17.46649c0,-1.22976 -0.69174,-1.84465 -2.07523,-1.84465h-7.7821c-0.7686,0 -1.25859,0.11529 -1.46995,0.34587c-0.21137,0.23058 -0.31705,0.71096 -0.31705,1.44113v17.58178c0,0.7686 0.10568,1.25859 0.31705,1.46995c0.21137,0.21137 0.70135,0.31705 1.46995,0.31705" data-paper-data="{&quot;elementType&quot;:&quot;letter&quot;,&quot;baseline&quot;:48.5,&quot;baselineProportion&quot;:0.7747603833865815,&quot;fontSize&quot;:100}" fill="#8088ae"></path></g></g></g></g></g></svg>