<svg version="1.1" xmlns="http://www.w3.org/2000/svg" xmlns:xlink="http://www.w3.org/1999/xlink" width="500" height="500"><defs><linearGradient x1="94.92577" y1="83.33333" x2="94.92577" y2="416.66667" gradientUnits="userSpaceOnUse" id="color-1"><stop offset="0" stop-color="#100d09"></stop><stop offset="1" stop-color="#101009"></stop></linearGradient><clipPath id="clip-1"><rect x="45.68238" y="30.22746" transform="scale(2.75688,2.75688)" width="90" height="90"></rect></clipPath><linearGradient x1="94.92577" y1="83.33333" x2="94.92577" y2="416.66667" gradientUnits="userSpaceOnUse" id="color-2"><stop offset="0" stop-color="#100d09"></stop><stop offset="1" stop-color="#101009"></stop></linearGradient></defs><g data-paper-data="{&quot;description&quot;:&quot;Logo for KoreaPCBang\n====================\n\nThis logo was generated by MarkMaker at http://emblemmatic.org/markmaker/ and may be composed of elements designed by others.\n\nThe font is Hind Jalandhar Medium designed by Indian Type Foundry and released under the OFL license via Google Fonts: https://www.google.com/fonts/specimen/Hind%20Jalandhar. The font includes this copyright statement: Copyright (c) 2015 Indian Type Foundry (info@indiantypefoundry.com)\n\nThe symbol is 'bunny' designed by Stefania Bonacasa and released into the public domain at the Noun Project: https://thenounproject.com/term/bunny/136632.\n\nMarkMaker uses semantic data from the Princeton University WordNet database http://wordnet.princeton.edu and font descriptions from Google Fonts https://www.google.com/fonts.&quot;}" fill="none" fill-rule="nonzero" stroke="none" stroke-width="none" stroke-linecap="butt" stroke-linejoin="miter" stroke-miterlimit="10" stroke-dasharray="" stroke-dashoffset="0" font-family="none" font-weight="none" font-size="none" text-anchor="none" style="mix-blend-mode: normal"><path d="M61.59243,450v-400h376.81514v400z" fill="none" stroke="#100e09" stroke-width="3.5"></path><g data-paper-data="{&quot;elementType&quot;:&quot;logo&quot;}" fill="url(#color-1)" stroke="none" stroke-width="1"><g data-paper-data="{&quot;elementType&quot;:&quot;text&quot;}"><g data-paper-data="{&quot;baseline&quot;:70.7,&quot;elementType&quot;:&quot;row&quot;}"><g data-paper-data="{&quot;baselineProportion&quot;:0.7846836847946725,&quot;fontSize&quot;:100,&quot;baseline&quot;:70.7,&quot;elementType&quot;:&quot;word&quot;}"><path d="M101.14524,404.35465h-6.21947v-44.42479h6.21947zM108.57052,387.5367l12.62933,16.81795h-7.42529l-12.37548,-16.81795l12.12162,-15.35828h7.29836l-12.24855,15.35828" data-paper-data="{&quot;elementType&quot;:&quot;letter&quot;,&quot;baseline&quot;:70,&quot;baselineProportion&quot;:1,&quot;fontSize&quot;:100}"></path><path d="M147.34701,376.39877c0,0 0.66637,0.77743 1.99912,2.3323c1.33274,1.55487 1.99912,4.74393 1.99912,9.56719c0,4.82326 -1.36448,8.80034 -4.09343,11.93123c-2.72895,3.13089 -6.47333,4.69633 -11.23312,4.69633c-4.7598,0 -8.4936,-1.54429 -11.20139,-4.63287c-2.7078,-3.08858 -4.06169,-7.02335 -4.06169,-11.8043c0,-4.78095 1.39621,-8.76861 4.18862,-11.96296c2.79242,-3.19435 6.55794,-4.79153 11.29659,-4.79153c4.73864,0 8.44071,1.55487 11.1062,4.6646zM136.14562,377.00168c0,0 -0.72455,0 -2.17364,0c-1.44909,0 -2.93521,1.08946 -4.45834,3.26839c-1.52314,2.17893 -2.2847,4.86557 -2.2847,8.05993c0,3.19435 0.78272,5.881 2.34817,8.05993c1.56544,2.17893 3.74437,3.26839 6.53679,3.26839c2.79242,0 4.93961,-1.05773 6.44159,-3.1732c1.50198,-2.11547 2.25297,-4.82326 2.25297,-8.12339c0,-3.30013 -0.71926,-6.0185 -2.15778,-8.15512c-1.43852,-2.13662 -3.60687,-3.20493 -6.50506,-3.20493" data-paper-data="{&quot;elementType&quot;:&quot;letter&quot;,&quot;baseline&quot;:51.400000000000006,&quot;baselineProportion&quot;:0.9827915869980879,&quot;fontSize&quot;:100}"></path><path d="M160.42059,404.35465h-6.21947v-32.17624h6.21947v5.64829c1.56544,-3.97708 4.37901,-5.96561 8.44071,-5.96561c0.59233,0 1.24812,0.06346 1.96738,0.19039v6.09254c-0.8885,-0.38078 -1.88276,-0.57118 -2.98281,-0.57118c-2.15778,0 -3.93477,0.95196 -5.33097,2.85588c-1.39621,1.90392 -2.09431,4.16747 -2.09431,6.79065z" data-paper-data="{&quot;elementType&quot;:&quot;letter&quot;,&quot;baseline&quot;:51.2,&quot;baselineProportion&quot;:1,&quot;fontSize&quot;:100}"></path><path d="M186.18697,404.67197c-4.9925,0 -8.96958,-1.50198 -11.93123,-4.50594c-2.96165,-3.00396 -4.44248,-7.01277 -4.44248,-12.02642c0,-5.01365 1.3539,-8.99073 4.06169,-11.93123c2.7078,-2.9405 6.13485,-4.41075 10.28116,-4.41075c4.14631,0 7.42529,1.27986 9.83692,3.83957c2.41163,2.55971 3.61745,6.2512 3.61745,11.07446c0,1.31159 -0.12693,2.68664 -0.38078,4.12516h-21.13351c0.42309,2.79242 1.60775,4.92904 3.55398,6.40986c1.94623,1.48083 4.51652,2.22124 7.71087,2.22124c3.19435,0 5.93388,-0.80388 8.21859,-2.41163v5.58483c-2.36932,1.3539 -5.50021,2.03085 -9.39267,2.03085zM191.58141,384.80775c-0.08462,-2.41163 -0.74041,-4.32613 -1.96738,-5.74349c-1.22697,-1.41736 -2.9405,-2.12604 -5.14058,-2.12604c-2.20008,0 -4.06169,0.77215 -5.58483,2.31644c-1.52314,1.54429 -2.4751,3.77611 -2.85588,6.69545h15.54868v-1.14235" data-paper-data="{&quot;elementType&quot;:&quot;letter&quot;,&quot;baseline&quot;:51.300000000000004,&quot;baselineProportion&quot;:0.9903474903474904,&quot;fontSize&quot;:100}"></path><path d="M209.22439,404.60851c-3.04627,0 -5.48963,-0.87792 -7.33009,-2.63376c-1.84046,-1.75584 -2.76068,-4.08285 -2.76068,-6.98104c0,-2.89819 1.16351,-5.20405 3.49052,-6.91757c2.32701,-1.71353 5.58483,-2.57029 9.77345,-2.57029h5.33097v-1.84046c0,-2.20008 -0.52887,-3.86073 -1.5866,-4.98192c-1.05773,-1.1212 -2.81357,-1.6818 -5.26751,-1.6818c-3.42705,0 -6.53679,0.95196 -9.32921,2.85588v-6.02908c2.49625,-1.43852 5.79638,-2.15778 9.90038,-2.15778c8.41955,0 12.62933,4.08285 12.62933,12.24855v20.4354h-6.15601v-3.80784c-1.65006,2.7078 -4.54825,4.06169 -8.69457,4.06169M205.73387,394.99372c0,0 0,0.36492 0,1.09475c0,0.72984 0.4654,1.51785 1.39621,2.36403c0.93081,0.84619 2.34817,1.26928 4.25209,1.26928c1.90392,0 3.43763,-0.5606 4.60114,-1.6818c1.16351,-1.1212 1.74526,-2.59145 1.74526,-4.41075v-3.61745h-4.82326c-2.36932,0 -4.15689,0.4654 -5.36271,1.39621c-1.20582,0.93081 -1.80872,2.12604 -1.80872,3.58571z" data-paper-data="{&quot;elementType&quot;:&quot;letter&quot;,&quot;baseline&quot;:51.5,&quot;baselineProportion&quot;:0.9922928709055876,&quot;fontSize&quot;:100}"></path><path d="M234.54652,416.66667h-6.21947v-44.48825h6.21947v4.95019c2.20008,-3.59629 5.4579,-5.39444 9.77345,-5.39444c4.31555,0 7.7003,1.53371 10.15424,4.60114c2.45394,3.06743 3.68091,7.00219 3.68091,11.8043c0,4.80211 -1.2587,8.77918 -3.77611,11.93123c-2.5174,3.15204 -5.89157,4.72807 -10.1225,4.72807c-4.23093,0 -7.46759,-1.77699 -9.70999,-5.33097zM243.43148,377.19207c0,0 -0.60291,0 -1.80872,0c-1.20582,0 -2.68664,0.87792 -4.44248,2.63376c-1.75584,1.75584 -2.63376,4.51652 -2.63376,8.28205c0,3.76553 0.87792,6.5791 2.63376,8.44071c1.75584,1.86161 3.81842,2.79242 6.18774,2.79242c2.36932,0 4.35786,-0.98369 5.96561,-2.95108c1.60775,-1.96738 2.41163,-4.67518 2.41163,-8.12339c0,-3.44821 -0.78272,-6.15601 -2.34817,-8.12339c-1.56544,-1.96738 -3.55398,-2.95108 -5.96561,-2.95108" data-paper-data="{&quot;elementType&quot;:&quot;letter&quot;,&quot;baseline&quot;:51.400000000000006,&quot;baselineProportion&quot;:0.7259887005649717,&quot;fontSize&quot;:100}"></path><path d="M275.79811,404.98929c-5.03481,0 -9.05419,-1.5866 -12.05816,-4.7598c-3.00396,-3.1732 -4.50594,-7.09739 -4.50594,-11.77257c0,-4.67518 1.51256,-8.65226 4.53767,-11.93123c3.02512,-3.27897 7.11854,-4.91846 12.28028,-4.91846c2.79242,0 5.35213,0.59233 7.67914,1.77699v5.71176c-2.07316,-1.31159 -4.60114,-1.96738 -7.58395,-1.96738c-2.98281,0 -5.47906,1.05773 -7.48875,3.1732c-2.00969,2.11547 -3.01454,4.82326 -3.01454,8.12339c0.08462,3.25782 1.07889,5.93388 2.98281,8.02819c1.90392,2.09431 4.56941,3.14147 7.99646,3.14147c2.53856,0 4.90788,-0.6981 7.10797,-2.09431v5.58483c-2.07316,1.26928 -4.71749,1.90392 -7.933,1.90392z" data-paper-data="{&quot;elementType&quot;:&quot;letter&quot;,&quot;baseline&quot;:51.6,&quot;baselineProportion&quot;:0.9809885931558935,&quot;fontSize&quot;:100}"></path><path d="M293.18724,404.35465h-6.28293v-44.86903h6.28293v17.57952c2.2847,-3.55398 5.48963,-5.33097 9.61479,-5.33097c4.12516,0 7.47817,1.52314 10.05904,4.56941c2.58087,3.04627 3.8713,6.95988 3.8713,11.74084c0,4.78095 -1.22697,8.76861 -3.68091,11.96296c-2.45394,3.19435 -5.81753,4.79153 -10.09077,4.79153c-4.27324,0 -7.53106,-1.77699 -9.77345,-5.33097zM301.977,377.19207c0,0 -0.58704,0 -1.76113,0c-1.17408,0 -2.63904,0.8885 -4.39488,2.66549c-1.75584,1.77699 -2.63376,4.53767 -2.63376,8.28205c0,3.74437 0.84619,6.54737 2.53856,8.40898c1.69237,1.86161 3.74437,2.79242 6.15601,2.79242c2.41163,0 4.42132,-1.00485 6.02908,-3.01454c1.60775,-2.00969 2.41163,-4.71749 2.41163,-8.12339c0,-3.4059 -0.80388,-6.09254 -2.41163,-8.05993c-1.60775,-1.96738 -3.58571,-2.95108 -5.93388,-2.95108" data-paper-data="{&quot;elementType&quot;:&quot;letter&quot;,&quot;baseline&quot;:70.7,&quot;baselineProportion&quot;:0.9901960784313725,&quot;fontSize&quot;:100}"></path><path d="M328.02896,404.60851c-3.04627,0 -5.48963,-0.87792 -7.33009,-2.63376c-1.84046,-1.75584 -2.76068,-4.08285 -2.76068,-6.98104c0,-2.89819 1.16351,-5.20405 3.49052,-6.91757c2.32701,-1.71353 5.58483,-2.57029 9.77345,-2.57029h5.33097v-1.84046c0,-2.20008 -0.52887,-3.86073 -1.5866,-4.98192c-1.05773,-1.1212 -2.81357,-1.6818 -5.26751,-1.6818c-3.42705,0 -6.53679,0.95196 -9.32921,2.85588v-6.02908c2.49625,-1.43852 5.79638,-2.15778 9.90038,-2.15778c8.41955,0 12.62933,4.08285 12.62933,12.24855v20.4354h-6.15601v-3.80784c-1.65006,2.7078 -4.54825,4.06169 -8.69457,4.06169M324.53844,394.99372c0,0 0,0.36492 0,1.09475c0,0.72984 0.4654,1.51785 1.39621,2.36403c0.93081,0.84619 2.34817,1.26928 4.25209,1.26928c1.90392,0 3.43763,-0.5606 4.60114,-1.6818c1.16351,-1.1212 1.74526,-2.59145 1.74526,-4.41075v-3.61745h-4.82326c-2.36932,0 -4.15689,0.4654 -5.36271,1.39621c-1.20582,0.93081 -1.80872,2.12604 -1.80872,3.58571z" data-paper-data="{&quot;elementType&quot;:&quot;letter&quot;,&quot;baseline&quot;:51.5,&quot;baselineProportion&quot;:0.9922928709055876,&quot;fontSize&quot;:100}"></path><path d="M373.72303,404.35465h-6.21947v-20.30847c0,-2.24239 -0.5606,-3.95592 -1.6818,-5.14058c-1.1212,-1.18466 -2.69722,-1.77699 -4.72807,-1.77699c-2.03085,0 -3.82899,0.85676 -5.39444,2.57029c-1.56544,1.71353 -2.34817,4.11458 -2.34817,7.20316v17.45259h-6.21947v-32.17624h6.21947v5.52137c1.90392,-3.97708 5.24636,-5.96561 10.02731,-5.96561c3.1732,0 5.6906,0.97311 7.55221,2.91934c1.86161,1.94623 2.79242,4.59056 2.79242,7.933z" data-paper-data="{&quot;elementType&quot;:&quot;letter&quot;,&quot;baseline&quot;:51.400000000000006,&quot;baselineProportion&quot;:1,&quot;fontSize&quot;:100}"></path><path d="M405.07423,401.6257c0,4.95019 -1.40678,8.68399 -4.22035,11.20139c-2.81357,2.5174 -6.35698,3.77611 -10.63022,3.77611c-4.27324,0 -7.82722,-0.6981 -10.66195,-2.09431v-6.28293c2.7078,1.77699 5.98677,2.66549 9.83692,2.66549c6.30409,0 9.45613,-3.10974 9.45613,-9.32921v-3.30013c-2.07316,3.46936 -5.05596,5.20405 -8.94842,5.20405c-3.89246,0 -7.12912,-1.34332 -9.70999,-4.02996c-2.58087,-2.68664 -3.8713,-6.44159 -3.8713,-11.26486c0,-4.82326 1.20582,-8.76861 3.61745,-11.83603c2.41163,-3.06743 5.68003,-4.60114 9.80518,-4.60114c4.12516,0 7.16085,1.8193 9.10708,5.4579v-5.01365h6.21947zM390.69964,377.19207c0,0 -0.58704,0 -1.76113,0c-1.17408,0 -2.48038,0.98369 -3.9189,2.95108c-1.43852,1.96738 -2.15778,4.59056 -2.15778,7.86953c0,3.27897 0.77215,5.7858 2.31644,7.52048c1.54429,1.73468 3.39532,2.60202 5.5531,2.60202c2.15778,0 4.05112,-0.85676 5.68003,-2.57029c1.62891,-1.71353 2.44336,-4.2944 2.44336,-7.74261c0,-3.44821 -0.77215,-6.08196 -2.31644,-7.90127c-1.54429,-1.8193 -3.49052,-2.72895 -5.83869,-2.72895" data-paper-data="{&quot;elementType&quot;:&quot;letter&quot;,&quot;baseline&quot;:51.400000000000006,&quot;baselineProportion&quot;:0.727015558698727,&quot;fontSize&quot;:100}"></path></g></g></g></g><g clip-path="url(#clip-1)" data-paper-data="{&quot;elementType&quot;:&quot;emblem&quot;}" fill="url(#color-2)" stroke="none" stroke-width="1"><path d="M307.89438,207.11703c-1.92981,-4.13531 -6.34081,-12.68163 -7.71925,-14.06006c-0.82706,-0.55138 -2.48119,-2.48119 -5.51375,-15.71419c-1.65413,-7.16788 -2.75688,-14.61144 -3.03256,-18.74675c-0.55138,-7.71925 -4.13531,-15.4385 -5.23806,-17.36831c-1.65413,-2.48119 -6.6165,-9.09769 -6.6165,-9.09769l-2.2055,-3.03256c-1.10275,-0.27569 -1.92981,-0.27569 -2.48119,-0.27569c-7.16788,0 -20.40088,2.75688 -23.70913,2.75688c-3.30825,0 -19.29813,-2.75688 -26.466,-2.75688c-0.82706,0 -1.65413,0 -2.48119,0.27569l-2.2055,3.03256c0,0 -5.23806,6.89219 -6.6165,9.09769c-1.37844,1.92981 -4.96238,9.64906 -5.23806,17.36831c-0.27569,4.13531 -1.37844,11.57888 -3.03256,18.74675c-2.75688,13.233 -4.68669,14.88713 -5.51375,15.71419c-1.37844,1.37844 -6.06513,10.47613 -7.71925,14.33575c0,0.27569 -0.27569,0.55138 -0.27569,0.55138l-1.10275,3.30825c0,0.27569 -0.27569,0.55138 -0.27569,1.10275c6.89219,9.09769 17.09263,20.40088 18.19538,23.43344c1.37844,4.411 7.16788,16.26556 14.06006,17.09263c6.89219,0.82706 24.53619,-2.75688 28.94719,-1.92981c4.411,-0.55138 19.02244,3.03256 26.19032,1.92981c7.16788,-1.10275 12.68163,-12.68163 14.06006,-17.09263c0.82706,-3.03256 11.0275,-14.06006 17.91969,-23.15775c-0.27569,-0.82706 -0.27569,-1.10275 -0.55138,-1.37844zM219.95006,191.12716c0,0 -5.78944,-1.92981 -6.6165,-4.96238c-0.82706,-3.03256 -0.27569,-6.34081 0.82706,-8.54631c1.10275,-1.92981 3.30825,-4.411 3.30825,-4.411c0,0 4.411,0.27569 4.68669,6.06513c0.27569,5.78944 -2.2055,11.85456 -2.2055,11.85456zM251.92981,245.71329c0,0.82706 1.92981,1.92981 2.2055,2.2055c0.27569,0.55138 4.411,2.2055 4.411,2.2055h-7.16788h-7.16788c0,0 3.85963,-1.65413 4.411,-2.2055c0.27569,-0.55138 2.2055,-1.65413 2.2055,-2.2055c0,-0.55138 0.27569,-8.822 0,-9.37338c-0.27569,-0.55138 -8.822,-8.27063 -8.822,-8.27063l9.64906,5.78944l9.64906,-5.78944c0,0 -8.54631,7.71925 -8.822,8.27063c-0.82706,0.55138 -0.55138,8.54631 -0.55138,9.37338zM289.14763,185.88909c-0.55138,3.30825 -6.6165,4.96238 -6.6165,4.96238c0,0 -2.48119,-6.34081 -2.48119,-11.85456c0.27569,-5.78944 4.68669,-6.06513 4.68669,-6.06513c0,0 2.2055,2.2055 3.30825,4.411c1.37844,2.2055 1.92981,5.51375 1.10275,8.54631z"></path><path d="M205.33862,158.59603c0.55138,-7.99494 4.13531,-16.26556 5.78944,-18.74675c1.65413,-2.48119 6.89219,-9.37338 6.89219,-9.37338l-16.54125,7.99494c0,0 -2.48119,1.65413 -5.78944,3.58394c-5.23806,3.30825 -12.68163,7.99494 -14.06006,8.822c-2.2055,1.10275 -26.466,42.73157 -26.466,45.48844c0,3.03256 -18.74675,52.10494 -19.02244,53.48338c-0.27569,1.37844 -7.44356,20.40088 -7.44356,20.40088c0,0 -2.2055,4.96238 1.37844,9.37338c3.03256,3.58394 7.71925,6.06513 11.0275,6.34081c-0.55138,-2.75688 -3.30825,-15.4385 -0.55138,-26.466c0.27569,-0.82706 0.27569,-0.82706 12.40594,-20.40088c4.411,-7.16788 8.822,-14.06006 9.64906,-15.71419c0.55138,-0.82706 0.82706,-1.65413 12.68163,-8.822c5.51375,-3.30825 11.0275,-6.6165 11.0275,-6.6165l0.27569,-0.27569l2.2055,-1.37844c2.75688,-5.51375 6.6165,-13.78438 8.54631,-15.71419c3.03256,-2.2055 7.44356,-23.98481 7.99494,-31.97975z"></path><path d="M371.30251,270.24948c0,0 -7.16788,-19.02244 -7.44356,-20.40088c-0.27569,-1.10275 -19.02244,-50.45082 -19.02244,-53.48338c0,-3.03256 -24.53619,-44.38569 -26.466,-45.76413c-1.37844,-0.82706 -8.822,-5.51375 -14.06006,-8.822c-3.30825,-1.92981 -5.78944,-3.58394 -5.78944,-3.58394l-16.54125,-7.99494c0,0 5.23806,6.89219 6.89219,9.37338c1.65413,2.48119 5.23806,10.75181 5.78944,18.74675c0.55138,7.99494 4.68669,29.77425 7.44356,32.53113c1.92981,1.92981 6.06513,10.47613 8.822,15.98988l2.2055,1.37844l0.27569,0.27569c0,0 5.51375,3.30825 11.0275,6.6165c11.85456,7.16788 12.13025,7.99494 12.68163,8.822c0.82706,1.65413 5.23806,8.27063 9.64906,15.71419c12.13025,19.29813 12.13025,19.57381 12.40594,20.40088c3.03256,11.0275 0.27569,23.70913 -0.55138,26.466c3.58394,-0.27569 8.27063,-2.75688 11.30319,-6.34081c3.58394,-4.68669 1.37844,-9.92475 1.37844,-9.92475z"></path><path d="M165.08824,225.03672c-0.27569,0.55138 -1.10275,1.65413 -1.92981,3.03256c-5.51375,8.822 -19.57381,31.42838 -19.8495,31.97975c-3.03256,11.57888 0.55138,25.63894 0.55138,25.63894c0,0 0.27569,0 0.55138,-0.27569c0.27569,-0.27569 0.82706,-0.55138 1.10275,-0.82706c5.51375,-3.30825 22.055,-13.78438 24.2605,-18.47106c2.2055,-4.68669 12.68163,-38.87194 16.54125,-51.27788c0.27569,-0.82706 0.55138,-1.65413 0.55138,-2.2055c0.27569,-1.37844 0.55138,-2.2055 0.55138,-2.2055c0,0 -0.27569,0.27569 -1.10275,0.55138c-3.85963,3.03256 -20.67656,12.95731 -21.22794,14.06006z"></path><path d="M334.91176,225.03672c-0.82706,-1.37844 -16.81694,-10.75181 -21.50363,-13.50869c-0.82706,-0.55138 -1.37844,-0.82706 -1.37844,-0.82706c0,0 0.82706,2.48119 1.92981,6.6165c4.13531,13.78438 13.78438,44.38569 15.71419,48.79669c0.55138,1.10275 1.65413,2.48119 3.30825,3.85963c1.92981,1.65413 4.411,3.58394 6.89219,5.51375c5.23806,3.85963 11.30319,7.71925 14.33575,9.37338c1.10275,0.55138 1.65413,1.10275 1.65413,1.10275c0,0 0,0 0,-0.27569c0.55138,-1.92981 3.30825,-14.61144 0.55138,-25.36325c-0.27569,-0.82706 -19.57381,-31.42838 -21.50363,-35.288z"></path></g></g></svg>