<svg version="1.1" xmlns="http://www.w3.org/2000/svg" xmlns:xlink="http://www.w3.org/1999/xlink" width="500" height="500"><defs><clipPath id="clip-1"><rect x="62.83789" y="122.08363" transform="rotate(-31.43059) scale(2.59655,1.89048) skewX(-23.98677)" width="100" height="83.333"></rect></clipPath><linearGradient x1="250" y1="50" x2="250" y2="370.03118" gradientUnits="userSpaceOnUse" id="color-1"><stop offset="0" stop-color="#6f7474"></stop><stop offset="1" stop-color="#b7c0c0"></stop></linearGradient></defs><g data-paper-data="{&quot;description&quot;:&quot;Logo for KoreaPCBang\n====================\n\nThis logo was generated by MarkMaker at http://emblemmatic.org/markmaker/ and may be composed of elements designed by others.\n\nThe font is Dinah Bold designed by Blondina Elms Pastel and released under the OFL license via Google Fonts: https://www.google.com/fonts/specimen/Dinah. The font includes this copyright statement: Copyright (c) Blondina Elms Pastel (blondina@atelierelms.com)\n\nThe symbol is 'archive' designed by Iconathon and released into the public domain at the Noun Project: https://thenounproject.com/term/archive/21033.\n\nMarkMaker uses semantic data from the Princeton University WordNet database http://wordnet.princeton.edu and font descriptions from Google Fonts https://www.google.com/fonts.&quot;}" fill="none" fill-rule="nonzero" stroke="none" stroke-width="1" stroke-linecap="butt" stroke-linejoin="miter" stroke-miterlimit="10" stroke-dasharray="" stroke-dashoffset="0" font-family="none" font-weight="none" font-size="none" text-anchor="none" style="mix-blend-mode: normal"><g data-paper-data="{&quot;elementType&quot;:&quot;logo&quot;}" fill="#939a9a"><g data-paper-data="{&quot;elementType&quot;:&quot;text&quot;}"><g data-paper-data="{&quot;baseline&quot;:65.8,&quot;elementType&quot;:&quot;row&quot;}"><g data-paper-data="{&quot;baselineProportion&quot;:0.7191256830601093,&quot;fontSize&quot;:100,&quot;baseline&quot;:65.8,&quot;elementType&quot;:&quot;word&quot;}"><path d="M111.52701,450c0.03822,-0.36732 0.08599,-1.2182 0.14332,-2.55264c0.05733,-1.33444 0.1051,-2.91146 0.14332,-4.73106c0.03822,-1.8196 0.07644,-3.77296 0.11465,-5.86008c0.03822,-2.08712 0.07644,-4.06915 0.11465,-5.94607c0.03822,-1.87692 0.06688,-3.5187 0.08599,-4.92533c0.01911,-1.40663 0.02866,-2.35836 0.02866,-2.8552c0,-0.61149 0,-1.25164 0,-1.92045c0,-0.66881 -0.01911,-1.29728 -0.05733,-1.88541c-0.03822,-0.58813 -0.07644,-1.09982 -0.11465,-1.53508c-0.03822,-0.43526 -0.11465,-0.7134 -0.22931,-0.83442l3.61159,-6.9653c0.91723,-0.56055 1.64337,-0.56482 2.17842,-0.01279c0.53505,0.55202 0.94589,1.47614 1.23253,2.77236c0.28663,1.29622 0.46817,2.90508 0.54461,4.82659c0.07644,1.92151 0.11465,3.97147 0.11465,6.14989c1.26119,-2.1466 2.54149,-4.31444 3.8409,-6.50351c1.29941,-2.18907 2.5606,-4.23057 3.78357,-6.12451c1.22297,-1.89394 2.36951,-3.52141 3.43961,-4.88242c1.0701,-1.36101 2.00644,-2.28675 2.80902,-2.77724c0.30574,-0.18685 0.57327,-0.33124 0.80258,-0.43316c0.22931,-0.10192 0.51594,-0.14333 0.8599,-0.12423l0.40129,3.76764c-0.22931,0.21657 -0.64015,0.76384 -1.23253,1.64181c-0.59238,0.87796 -1.28985,1.93481 -2.09243,3.17054c-0.80258,1.23573 -1.65292,2.56754 -2.55104,3.99543c-0.89812,1.42789 -1.76758,2.81914 -2.60837,4.17378c1.75802,1.2569 3.5256,2.42197 5.30273,3.49521c1.77713,1.07324 3.37273,2.07589 4.78679,3.00795c1.41406,0.93206 2.5606,1.77919 3.43961,2.54141c0.87901,0.76221 1.31852,1.42995 1.31852,2.00322c0,0.15287 -0.28663,0.63379 -0.8599,1.44275l-6.36328,3.88883c-0.07644,-0.37368 -0.25797,-0.76913 -0.54461,-1.18633c-0.28663,-0.4172 -0.6306,-0.81848 -1.03188,-1.20384c-0.40129,-0.38535 -0.82168,-0.73037 -1.26119,-1.03504c-0.43951,-0.30467 -0.81213,-0.57378 -1.11787,-0.80733c-0.34396,-0.24841 -0.82168,-0.5966 -1.43317,-1.04459c-0.61149,-0.44798 -1.2803,-0.92781 -2.00644,-1.43949c-0.72614,-0.51168 -1.46183,-1.00796 -2.20708,-1.48885c-0.74525,-0.48089 -1.42362,-0.91666 -2.0351,-1.30732l-3.43961,6.51624c-0.03822,0.67306 -0.05733,1.344 -0.05733,2.01281c0,0.66881 0,1.32807 0,1.97778c0,1.41406 0.00955,2.81273 0.02866,4.19601c0.01911,1.38328 0.04777,2.65561 0.08599,3.81701z" data-paper-data="{&quot;elementType&quot;:&quot;letter&quot;,&quot;baseline&quot;:65.7,&quot;baselineProportion&quot;:0.9984802431610943,&quot;fontSize&quot;:100}"></path><path d="M153.03164,424.80702c-2.1402,1.30795 -3.82179,2.00123 -5.04476,2.07981c-1.22297,0.07859 -2.1402,-0.23987 -2.75169,-0.95538c-0.61149,-0.71551 -0.98411,-1.72031 -1.11787,-3.01441c-0.13376,-1.2941 -0.20064,-2.64818 -0.20064,-4.06224c0,-0.68792 0.41084,-1.84668 1.23253,-3.47627c0.82168,-1.62959 1.8058,-3.33933 2.95233,-5.12923c1.14654,-1.7899 2.33129,-3.45028 3.55426,-4.98115c1.22297,-1.53087 2.23575,-2.54155 3.03832,-3.03203c1.83446,-1.1211 3.35362,-1.8011 4.55748,-2.03999c1.20386,-0.23889 2.14976,-0.14815 2.83768,0.27223c0.68792,0.42038 1.1752,1.08759 1.46183,2.00163c0.28663,0.91404 0.42995,1.96343 0.42995,3.14819c0,0.4204 -0.01911,0.86203 -0.05733,1.32489c-0.03822,0.46286 -0.07644,0.89706 -0.11465,1.3026c-0.07644,0.73463 -0.5255,1.91675 -1.34718,3.54634c-0.82168,1.62959 -1.8058,3.32978 -2.95233,5.10057c-1.14654,1.77079 -2.32174,3.41578 -3.5256,4.93497c-1.20386,1.51919 -2.18797,2.51235 -2.95233,2.97948zM156.75789,418.40224c0.34396,-1.16565 0.51594,-2.51284 0.51594,-4.04156c0,-1.14654 -0.1051,-2.2384 -0.3153,-3.27558c-0.2102,-1.03719 -0.50639,-1.89761 -0.88857,-2.58128c-0.38218,-0.68367 -0.85035,-1.15235 -1.40451,-1.40607c-0.55416,-0.25371 -1.19431,-0.15868 -1.92045,0.28509c-0.22931,0.14014 -0.48728,0.36467 -0.77391,0.67361c-0.28663,0.30894 -0.58282,0.7097 -0.88857,1.20229c-0.53505,1.28244 -0.80258,2.80267 -0.80258,4.56069c0,1.14654 0.13376,2.18266 0.40129,3.10838c0.26753,0.92572 0.64015,1.6821 1.11787,2.26916c0.47772,0.58706 1.03188,0.95542 1.66248,1.10509c0.6306,0.14967 1.32807,-0.00906 2.09243,-0.47618c0.19109,-0.11678 0.41084,-0.30841 0.65926,-0.57488c0.24842,-0.26647 0.42995,-0.54939 0.54461,-0.84877" data-paper-data="{&quot;elementType&quot;:&quot;letter&quot;,&quot;baseline&quot;:37.300000000000004,&quot;baselineProportion&quot;:0.9920212765957448,&quot;fontSize&quot;:100}"></path><path d="M169.08316,414.82538c0.07644,-0.54355 0.14332,-1.31056 0.20064,-2.30104c0.05733,-0.99048 0.11465,-2.0574 0.17198,-3.20075c0.05733,-1.14335 0.1051,-2.26176 0.14332,-3.35522c0.03822,-1.09346 0.05733,-2.02237 0.05733,-2.78672c0,-0.61149 0,-1.23253 0,-1.86312c0,-0.6306 -0.01911,-1.21129 -0.05733,-1.7421c-0.03822,-0.5308 -0.07644,-0.99473 -0.11465,-1.39177c-0.03822,-0.39704 -0.11465,-0.65607 -0.22931,-0.77709l3.49694,-6.66592c1.79624,-1.09775 2.82812,-1.07866 3.09565,0.05725c0.57327,-0.84718 1.15609,-1.60465 1.74847,-2.27242c0.59238,-0.66777 1.13698,-1.15347 1.63382,-1.4571c0.76436,-0.35247 1.57649,-0.57171 2.43639,-0.65773c0.8599,-0.08601 1.64337,-0.08709 2.3504,-0.00324c0.70703,0.08385 1.29941,0.19955 1.77713,0.3471c0.47772,0.14755 0.71659,0.25955 0.71659,0.33598c-0.22931,0.56053 -0.59238,1.29836 -1.08921,2.21348c-0.49683,0.91512 -1.0701,1.8865 -1.71981,2.91416c-0.6497,1.02765 -1.36629,2.06752 -2.14976,3.11959c-0.78347,1.05207 -1.57649,2.01444 -2.37906,2.8871l-1.08921,-0.88217c0.30574,-0.3015 0.62104,-0.71395 0.94589,-1.23733c0.32485,-0.52338 0.61149,-1.03296 0.8599,-1.52874c0.24842,-0.49578 0.45861,-0.92998 0.6306,-1.30261c0.17198,-0.37263 0.25797,-0.55894 0.25797,-0.55894c-0.91723,-0.24202 -1.68159,-0.34817 -2.29307,-0.31843c-0.61149,0.02974 -1.0701,0.13804 -1.37584,0.32489c-0.19109,0.11678 -0.40129,0.33123 -0.6306,0.64335c-0.22931,0.31212 -0.38218,0.6253 -0.45861,0.93953v4.93011c0,0.53505 -0.00955,1.09505 -0.02866,1.68c-0.01911,0.58495 -0.02866,1.16405 -0.02866,1.73732v7.96843z" data-paper-data="{&quot;elementType&quot;:&quot;letter&quot;,&quot;baseline&quot;:38.1,&quot;baselineProportion&quot;:1,&quot;fontSize&quot;:100}"></path><path d="M202.96332,383.05592c-0.38218,0.53931 -0.91723,1.13382 -1.60515,1.78354c-0.68792,0.64972 -1.42362,1.29042 -2.20708,1.9221c-0.78347,0.63168 -1.57649,1.23097 -2.37906,1.79789c-0.80258,0.56692 -1.50961,1.03723 -2.12109,1.41093c0.4204,1.57754 1.08921,2.47777 2.00644,2.70068c0.91723,0.22292 1.87268,0.03074 2.86634,-0.57652c0.68792,-0.42041 1.50005,-1.20337 2.43639,-2.34887c0.93634,-1.1455 1.90134,-2.55693 2.89501,-4.2343l1.83446,0.94266c-0.4204,0.79197 -1.15609,1.83396 -2.20708,3.12596c-1.05099,1.292 -2.1402,2.55959 -3.26763,3.80276c-1.12743,1.24317 -2.18797,2.35948 -3.18164,3.34892c-0.99367,0.98944 -1.64337,1.57759 -1.94911,1.76444c-1.33763,0.81747 -2.48416,1.20286 -3.43961,1.15618c-0.95545,-0.04669 -1.74847,-0.36462 -2.37906,-0.9538c-0.6306,-0.58918 -1.09876,-1.38272 -1.40451,-2.38062c-0.30574,-0.9979 -0.45861,-2.03191 -0.45861,-3.10201c0,-0.80258 0.11465,-1.71344 0.34396,-2.73259c0.15287,-0.62848 0.58282,-1.6747 1.28985,-3.13868c0.70703,-1.46398 1.52872,-2.98846 2.46505,-4.57347c0.93634,-1.585 1.89179,-3.05748 2.86634,-4.41742c0.97456,-1.35994 1.78669,-2.23844 2.43639,-2.6355l0.34396,-0.21021c1.0701,-0.53932 2.09243,-0.81059 3.06699,-0.8138c0.97456,-0.00321 1.84401,0.12469 2.60837,0.38371c0.76436,0.25901 1.37584,0.57323 1.83446,0.94266c0.45861,0.36943 0.70703,0.65712 0.74525,0.86307c-0.15287,0.51382 -0.40129,1.1147 -0.74525,1.80263c-0.34396,0.68793 -0.72614,1.37055 -1.14654,2.04787c-0.45861,0.73889 -0.97456,1.51282 -1.54782,2.32178M194.47895,384.40013c-0.11465,0.94908 -0.17198,1.74847 -0.17198,2.39818c0.26753,0.2569 0.6306,0.33121 1.08921,0.22291c0.45861,-0.1083 0.89812,-0.2909 1.31852,-0.54782c0.84079,-0.51384 1.67203,-1.17471 2.49372,-1.98261c0.82168,-0.8079 1.40451,-1.52716 1.74847,-2.15776c-0.4204,-0.88962 -1.09876,-1.40183 -2.0351,-1.53663c-0.93634,-0.1348 -1.8249,0.05472 -2.6657,0.56856c-0.84079,0.51384 -1.43317,1.52557 -1.77713,3.03518z" data-paper-data="{&quot;elementType&quot;:&quot;letter&quot;,&quot;baseline&quot;:37.6,&quot;baselineProportion&quot;:0.9920844327176782,&quot;fontSize&quot;:100}"></path><path d="M215.11662,386.52071c-0.6497,0.32062 -1.33763,0.52128 -2.06377,0.60198c-0.72614,0.0807 -1.40451,0.05577 -2.0351,-0.07479c-0.6306,-0.13056 -1.16565,-0.36729 -1.60515,-0.71018c-0.43951,-0.34289 -0.67837,-0.77018 -0.71659,-1.28187c0.07644,-0.04671 0.23886,-0.49949 0.48728,-1.35834c0.24842,-0.85885 0.71659,-1.92843 1.40451,-3.20875c0.68792,-1.28032 1.64337,-2.64769 2.86634,-4.10212c1.22297,-1.45443 2.84723,-2.80059 4.87278,-4.03848l0.22931,-0.14014v-0.51594c0,-2.17842 -0.26753,-3.45765 -0.80258,-3.83769c-0.53505,-0.38004 -1.14654,-0.35986 -1.83446,0.06056c-0.38218,0.23356 -0.80258,0.54781 -1.26119,0.94274c-0.45861,0.39493 -0.89812,0.77818 -1.31852,1.14975l-1.94911,1.70711l-0.34396,-0.53504c0.45861,-0.73889 0.95545,-1.52025 1.4905,-2.34407c0.53505,-0.82382 1.08921,-1.61155 1.66248,-2.36318c0.57327,-0.75163 1.12743,-1.41515 1.66248,-1.99056c0.53505,-0.5754 1.03188,-1.00325 1.4905,-1.28352c0.57327,-0.27391 1.27075,-0.48041 2.09243,-0.6195c0.82168,-0.13909 1.62426,-0.19007 2.40773,-0.15293c0.78347,0.03714 1.4905,0.16876 2.12109,0.39487c0.6306,0.22611 1.02233,0.57908 1.1752,1.05893c0.07644,0.14438 0.11465,0.25478 0.11465,0.33122c0,0.07644 0,0.15287 0,0.22931c0,0.84079 -0.04777,1.82544 -0.14332,2.95393c-0.09554,1.12849 -0.14332,2.01759 -0.14332,2.66729c0,1.37584 0.09554,2.42577 0.28663,3.14978c0.19109,0.72401 0.4204,1.25269 0.68792,1.58603c0.26753,0.33334 0.54461,0.52708 0.83124,0.58121c0.28663,0.05413 0.54461,0.06846 0.77391,0.04298c0.19109,0.03609 0.36307,0.06475 0.51594,0.08598c0.15287,0.02123 0.28663,0.01592 0.40129,-0.01593c-0.19109,0.42252 -0.58282,1.13965 -1.1752,2.15138c-0.59238,1.01173 -1.55738,2.32761 -2.89501,3.94766c-0.99367,0.11043 -1.91089,0.11682 -2.75169,0.01918c-0.84079,-0.09765 -1.4905,-0.29297 -1.94911,-0.58596c-0.80258,1.25484 -1.60515,2.38547 -2.40773,3.3919c-0.80258,1.00642 -1.52872,1.70817 -2.17842,2.10522M219.58811,378.62861c-0.19109,-0.11253 -0.36307,-0.31317 -0.51594,-0.60192c-0.15287,-0.28875 -0.26753,-0.73463 -0.34396,-1.33762c-0.07644,-0.45012 -0.11465,-0.97137 -0.11465,-1.56375c0,-0.59238 -0.01911,-0.87689 -0.05733,-0.85353c-0.19109,0.07856 -0.35352,0.14916 -0.48728,0.2118c-0.13376,0.06264 -0.27708,0.14067 -0.42995,0.2341c-0.4204,0.25692 -0.79302,0.54197 -1.11787,0.85515c-0.32485,0.31318 -0.60193,0.61628 -0.83124,0.90929c-0.26753,0.31637 -0.49683,0.62848 -0.68792,0.93636c0.03822,0.43526 0.14332,0.86786 0.3153,1.29781c0.17198,0.42995 0.39173,0.78293 0.65926,1.05894c0.26753,0.27601 0.56371,0.45807 0.88857,0.54618c0.32485,0.08811 0.67837,0.01538 1.06055,-0.21819c0.07644,-0.04671 0.23886,-0.18419 0.48728,-0.41245c0.24842,-0.22825 0.64015,-0.58231 1.1752,-1.06217z" data-paper-data="{&quot;elementType&quot;:&quot;letter&quot;,&quot;baseline&quot;:38.6,&quot;baselineProportion&quot;:0.9747474747474747,&quot;fontSize&quot;:100}"></path><path d="M229.73496,340.55378l18.5739,-11.35117c1.79624,-0.94488 3.29629,-1.49854 4.50016,-1.661c1.20386,-0.16246 2.16887,-0.05473 2.89501,0.32319c0.72614,0.37791 1.24208,0.96072 1.54782,1.74843c0.30574,0.78771 0.45861,1.65928 0.45861,2.61473c0,1.75802 -0.44906,3.65672 -1.34718,5.69609c-0.89812,2.03937 -1.99689,4.00072 -3.29629,5.88404c-1.29941,1.88332 -2.67525,3.58406 -4.12753,5.10219c-1.45228,1.51814 -2.71347,2.60419 -3.78357,3.25817l-5.96199,3.64359v1.4905c0,0.53505 -0.00955,1.05683 -0.02866,1.56534c-0.01911,0.50851 -0.02866,1.01118 -0.02866,1.50802v2.981c0,1.41406 0.00955,2.87961 0.02866,4.39665c0.01911,1.51704 0.04777,2.87536 0.08599,4.07498l-7.9111,4.83476c0.03822,-0.29088 0.08599,-0.95067 0.14332,-1.97937c0.05733,-1.0287 0.1051,-2.26176 0.14332,-3.69918c0.03822,-1.43742 0.07644,-3.01815 0.11465,-4.74221c0.03822,-1.72405 0.07644,-3.45766 0.11465,-5.20082c0.03822,-1.74316 0.06688,-3.40405 0.08599,-4.98266c0.01911,-1.57861 0.02866,-2.94119 0.02866,-4.08772v-2.06377c0,-1.22297 -0.01911,-2.38649 -0.05733,-3.49057c-0.03822,-1.10407 -0.17198,-1.75802 -0.40129,-1.96184l0.91723,-1.76442c-0.19109,0.11678 -0.39173,0.24896 -0.60193,0.39653c-0.2102,0.14757 -0.35352,0.24471 -0.42995,0.29142l-1.66248,-2.8249M239.19389,353.06035c0.49683,-0.18898 1.11787,-0.48253 1.86312,-0.88065c0.74525,-0.39812 1.46183,-0.80739 2.14976,-1.2278c1.41406,-0.86418 2.57971,-1.72942 3.49694,-2.59572c0.91723,-0.86629 1.65292,-1.76496 2.20708,-2.69601c0.55416,-0.93104 0.93634,-1.92897 1.14654,-2.99376c0.2102,-1.0648 0.33441,-2.23947 0.37262,-3.52402v-0.34396c0,-2.71347 -0.59238,-4.36744 -1.77713,-4.96191c-1.18475,-0.59447 -2.86634,-0.22605 -5.04476,1.10526c-1.0701,0.65398 -2.08288,1.32069 -3.03832,2.00014c-0.95545,0.67945 -1.58604,1.1126 -1.89179,1.29946c0.22931,1.31214 0.37262,3.0208 0.42995,5.12596c0.05733,2.10517 0.08599,4.45716 0.08599,7.05598z" data-paper-data="{&quot;elementType&quot;:&quot;letter&quot;,&quot;baseline&quot;:64.9,&quot;baselineProportion&quot;:1.0030911901081916,&quot;fontSize&quot;:100}"></path><path d="M270.609,315.05825c0.80258,-0.26118 1.64337,-0.4215 2.52238,-0.48097c0.87901,-0.05947 1.73891,-0.04994 2.57971,0.0286c0.84079,0.07854 1.63382,0.20538 2.37906,0.38053c0.74525,0.17515 1.40451,0.37418 1.97778,0.59711c0.57327,0.22292 1.03188,0.42993 1.37584,0.62101c0.34396,0.19108 0.51594,0.36306 0.51594,0.51593c-0.15287,0.36095 -0.57327,1.21025 -1.26119,2.54789c-0.68792,1.33764 -1.87268,3.13179 -3.55426,5.38244c-0.49683,-0.46073 -1.13698,-0.88164 -1.92045,-1.26274c-0.78347,-0.3811 -1.61471,-0.67567 -2.49372,-0.88373c-0.87901,-0.20805 -1.77713,-0.28022 -2.69436,-0.2165c-0.91723,0.06372 -1.73891,0.31746 -2.46505,0.76123c-0.99367,0.60726 -1.77713,1.51602 -2.3504,2.72627c-0.57327,1.21025 -1.00322,2.51444 -1.28985,3.91259c-0.28663,1.39815 -0.46817,2.77983 -0.54461,4.14506c-0.07644,1.36523 -0.11465,2.52557 -0.11465,3.48102c0,2.90456 0.19109,5.22417 0.57327,6.95883c0.38218,1.73466 0.90768,2.99 1.57649,3.76602c0.66881,0.77602 1.43317,1.15924 2.29307,1.14967c0.8599,-0.00958 1.76758,-0.30632 2.72303,-0.89023c1.60515,-0.98097 3.30585,-2.26874 5.10209,-3.86332c1.79624,-1.59458 3.55426,-3.5862 5.27407,-5.97486l1.77713,2.06691c-0.87901,1.22512 -2.09243,2.61638 -3.64025,4.1738c-1.54782,1.55742 -3.12431,3.05592 -4.72946,4.4955c-1.60515,1.43958 -3.0861,2.70771 -4.44283,3.80438c-1.35674,1.09667 -2.32174,1.83929 -2.89501,2.22786c-1.94911,1.07652 -3.62115,1.53464 -5.0161,1.37438c-1.39495,-0.16027 -2.54149,-0.73032 -3.43961,-1.71017c-0.89812,-0.97984 -1.54782,-2.27393 -1.94911,-3.88225c-0.40129,-1.60833 -0.60193,-3.31061 -0.60193,-5.10685c0,-1.14654 0.06688,-2.33395 0.20064,-3.56223c0.13376,-1.22828 0.33441,-2.4019 0.60193,-3.52084c0.15287,-0.66669 0.49683,-1.66037 1.03188,-2.98102c0.53505,-1.32065 1.1752,-2.77242 1.92045,-4.35529c0.74525,-1.58288 1.57649,-3.22786 2.49372,-4.93495c0.91723,-1.70709 1.84401,-3.31492 2.78035,-4.82349c0.93634,-1.50857 1.84401,-2.82764 2.72303,-3.95721c0.87901,-1.12957 1.68159,-1.91624 2.40773,-2.36001z" data-paper-data="{&quot;elementType&quot;:&quot;letter&quot;,&quot;baseline&quot;:65.8,&quot;baselineProportion&quot;:0.9954614220877459,&quot;fontSize&quot;:100}"></path><path d="M286.2019,305.98749c0.26753,-0.16349 0.60193,-0.35831 1.00322,-0.58444c0.40129,-0.22613 0.81213,-0.4581 1.23253,-0.69591c0.4204,-0.23781 0.84079,-0.48518 1.26119,-0.7421c0.4204,-0.25692 0.78347,-0.4788 1.08921,-0.66566c2.10198,-1.2846 4.20397,-2.5883 6.30595,-3.91112c2.10198,-1.32282 3.87912,-2.42799 5.3314,-3.31553l0.51594,-0.31531c1.83446,-0.96823 3.34407,-1.51818 4.52882,-1.64985c1.18475,-0.13167 2.1402,0.00101 2.86634,0.39803c0.72614,0.39702 1.23253,1.00478 1.51916,1.82327c0.28663,0.81849 0.42995,1.70546 0.42995,2.66091c0,0.80258 -0.07644,1.57543 -0.22931,2.31856c-0.15287,0.74313 -0.41084,1.53138 -0.77391,2.36475c-0.36307,0.83337 -0.82168,1.72513 -1.37584,2.67529c-0.55416,0.95015 -1.23253,2.01443 -2.0351,3.19284l-0.40129,0.24524c1.26119,-0.38858 2.32174,-0.53988 3.18164,-0.45392c0.8599,0.08597 1.54782,0.33437 2.06377,0.7452c0.51594,0.41083 0.88857,0.93791 1.11787,1.58124c0.22931,0.64333 0.34396,1.34717 0.34396,2.11153c0,1.52872 -0.38218,3.26233 -1.14654,5.20085c-0.76436,1.93852 -1.77713,3.87598 -3.03832,5.81238c-1.26119,1.9364 -2.67525,3.73693 -4.24219,5.40157c-1.56693,1.66464 -3.15298,2.98744 -4.75813,3.96841l-7.79645,4.76469c-0.34396,0.21021 -0.74525,0.45545 -1.20386,0.73572c-0.45861,0.28028 -0.93634,0.58178 -1.43317,0.90453c-0.49683,0.32274 -0.99367,0.63593 -1.4905,0.93956c-0.49683,0.30363 -0.91723,0.56055 -1.26119,0.77076c0.03822,-0.67306 0.08599,-1.75325 0.14332,-3.24056c0.05733,-1.48731 0.1051,-3.15032 0.14332,-4.98903c0.03822,-1.83871 0.07644,-3.7634 0.11465,-5.77409c0.03822,-2.01069 0.07644,-3.89717 0.11465,-5.65944c0.03822,-1.76227 0.06688,-3.28939 0.08599,-4.58137c0.01911,-1.29198 0.02866,-2.16727 0.02866,-2.62589c0,-1.22297 -0.01911,-2.38649 -0.05733,-3.49057c-0.03822,-1.10407 -0.17198,-1.75802 -0.40129,-1.96184l0.91723,-1.76442c-0.19109,0.11678 -0.39173,0.24896 -0.60193,0.39653c-0.2102,0.14757 -0.35352,0.24471 -0.42995,0.29142l-1.66248,-2.88223M295.66083,334.20161c0.6497,-0.24419 1.44273,-0.62373 2.37906,-1.13863c0.93634,-0.5149 1.78669,-1.00592 2.55104,-1.47304c2.25486,-1.37802 3.86001,-2.9227 4.81545,-4.63404c0.95545,-1.71134 1.43317,-3.77087 1.43317,-6.1786c0,-1.83446 -0.20064,-3.22145 -0.60193,-4.16096c-0.40129,-0.93951 -0.95545,-1.53719 -1.66248,-1.79302c-0.70703,-0.25583 -1.54782,-0.21971 -2.52238,0.10835c-0.97456,0.32806 -2.05421,0.85411 -3.23897,1.57816c-0.6497,0.39706 -1.2803,0.8111 -1.89179,1.24213c-0.61149,0.43103 -1.03188,0.75483 -1.26119,0.9714v15.47825M305.00511,305.78956c-0.03822,-1.62001 -0.21975,-2.87536 -0.54461,-3.76604c-0.32485,-0.89068 -0.78347,-1.46075 -1.37584,-1.71022c-0.59238,-0.24946 -1.30896,-0.24148 -2.14976,0.02394c-0.84079,0.26542 -1.79624,0.72512 -2.86634,1.3791c-0.57327,0.35034 -1.13698,0.73307 -1.69114,1.14817c-0.55416,0.4151 -0.98411,0.71608 -1.28985,0.90293c0.11465,0.38855 0.2102,1.04674 0.28663,1.97458c0.07644,0.92784 0.13376,1.95336 0.17198,3.07654c0.03822,1.12318 0.06688,2.2522 0.08599,3.38706c0.01911,1.13486 0.02866,2.10358 0.02866,2.90615v1.60515c2.21664,-1.35467 3.96511,-2.44233 5.24541,-3.26298c1.2803,-0.82065 2.34085,-1.4879 3.18164,-2.00174c0.03822,-0.09979 0.20064,-0.65767 0.48728,-1.67364c0.28663,-1.01597 0.42995,-2.34563 0.42995,-3.989z" data-paper-data="{&quot;elementType&quot;:&quot;letter&quot;,&quot;baseline&quot;:65,&quot;baselineProportion&quot;:1,&quot;fontSize&quot;:100}"></path><path d="M323.52168,320.27051c-0.6497,0.32062 -1.33763,0.52128 -2.06377,0.60198c-0.72614,0.0807 -1.40451,0.05577 -2.0351,-0.07479c-0.6306,-0.13056 -1.16565,-0.36729 -1.60515,-0.71018c-0.43951,-0.34289 -0.67837,-0.77018 -0.71659,-1.28187c0.07644,-0.04671 0.23886,-0.49949 0.48728,-1.35834c0.24842,-0.85885 0.71659,-1.92843 1.40451,-3.20875c0.68792,-1.28032 1.64337,-2.64769 2.86634,-4.10212c1.22297,-1.45443 2.84723,-2.80059 4.87278,-4.03848l0.22931,-0.14014v-0.51594c0,-2.17842 -0.26753,-3.45765 -0.80258,-3.83769c-0.53505,-0.38004 -1.14654,-0.35986 -1.83446,0.06056c-0.38218,0.23356 -0.80258,0.54781 -1.26119,0.94274c-0.45861,0.39493 -0.89812,0.77818 -1.31852,1.14975l-1.94911,1.70711l-0.34396,-0.53504c0.45861,-0.73889 0.95545,-1.52025 1.4905,-2.34407c0.53505,-0.82382 1.08921,-1.61155 1.66248,-2.36318c0.57327,-0.75163 1.12743,-1.41515 1.66248,-1.99056c0.53505,-0.5754 1.03188,-1.00325 1.4905,-1.28352c0.57327,-0.27391 1.27075,-0.48041 2.09243,-0.6195c0.82168,-0.13909 1.62426,-0.19007 2.40773,-0.15293c0.78347,0.03714 1.4905,0.16876 2.12109,0.39487c0.6306,0.22611 1.02233,0.57908 1.1752,1.05893c0.07644,0.14438 0.11465,0.25478 0.11465,0.33122c0,0.07644 0,0.15287 0,0.22931c0,0.84079 -0.04777,1.82544 -0.14332,2.95393c-0.09554,1.12849 -0.14332,2.01759 -0.14332,2.66729c0,1.37584 0.09554,2.42577 0.28663,3.14978c0.19109,0.72401 0.4204,1.25269 0.68792,1.58603c0.26753,0.33334 0.54461,0.52708 0.83124,0.58121c0.28663,0.05413 0.54461,0.06846 0.77391,0.04298c0.19109,0.03609 0.36307,0.06475 0.51594,0.08598c0.15287,0.02123 0.28663,0.01592 0.40129,-0.01593c-0.19109,0.42252 -0.58282,1.13965 -1.1752,2.15138c-0.59238,1.01173 -1.55738,2.32761 -2.89501,3.94766c-0.99367,0.11043 -1.91089,0.11682 -2.75169,0.01918c-0.84079,-0.09765 -1.4905,-0.29297 -1.94911,-0.58596c-0.80258,1.25484 -1.60515,2.38547 -2.40773,3.3919c-0.80258,1.00642 -1.52872,1.70817 -2.17842,2.10522M327.99317,312.3784c-0.19109,-0.11253 -0.36307,-0.31317 -0.51594,-0.60192c-0.15287,-0.28875 -0.26753,-0.73463 -0.34396,-1.33762c-0.07644,-0.45012 -0.11465,-0.97137 -0.11465,-1.56375c0,-0.59238 -0.01911,-0.87689 -0.05733,-0.85353c-0.19109,0.07856 -0.35352,0.14916 -0.48728,0.2118c-0.13376,0.06264 -0.27708,0.14067 -0.42995,0.2341c-0.4204,0.25692 -0.79302,0.54197 -1.11787,0.85515c-0.32485,0.31318 -0.60193,0.61628 -0.83124,0.90929c-0.26753,0.31637 -0.49683,0.62848 -0.68792,0.93636c0.03822,0.43526 0.14332,0.86786 0.3153,1.29781c0.17198,0.42995 0.39173,0.78293 0.65926,1.05894c0.26753,0.27601 0.56371,0.45807 0.88857,0.54618c0.32485,0.08811 0.67837,0.01538 1.06055,-0.21819c0.07644,-0.04671 0.23886,-0.18419 0.48728,-0.41245c0.24842,-0.22825 0.64015,-0.58231 1.1752,-1.06217z" data-paper-data="{&quot;elementType&quot;:&quot;letter&quot;,&quot;baseline&quot;:38.6,&quot;baselineProportion&quot;:0.9747474747474747,&quot;fontSize&quot;:100}"></path><path d="M340.49042,310.07228c0.07644,-0.54355 0.14332,-1.31056 0.20064,-2.30104c0.05733,-0.99048 0.11465,-2.0574 0.17198,-3.20075c0.05733,-1.14335 0.1051,-2.26176 0.14332,-3.35522c0.03822,-1.09346 0.05733,-2.02237 0.05733,-2.78672c0,-0.61149 0,-1.23253 0,-1.86312c0,-0.6306 -0.01911,-1.21129 -0.05733,-1.7421c-0.03822,-0.5308 -0.07644,-0.99473 -0.11465,-1.39177c-0.03822,-0.39704 -0.11465,-0.65607 -0.22931,-0.77709l3.49694,-6.66592c1.68159,-1.02768 2.67525,-1.00435 2.981,0.06999c0.6497,-0.93211 1.33763,-1.80158 2.06377,-2.60842c0.72614,-0.80684 1.50961,-1.46718 2.3504,-1.98102c0.68792,-0.42041 1.50005,-0.7352 2.43639,-0.94436c0.93634,-0.20916 1.8058,-0.32012 2.60837,-0.33288c0.80258,-0.01276 1.47139,0.05623 2.00644,0.20696c0.53505,0.15074 0.74525,0.35668 0.6306,0.61784c0.22931,0.08917 0.4204,0.30679 0.57327,0.65287c0.15287,0.34608 0.27708,0.78611 0.37262,1.3201c0.09554,0.53399 0.15287,1.12955 0.17198,1.78668c0.01911,0.65714 0.02866,1.32966 0.02866,2.01759v3.32496c0,0.49683 0,1.14654 0,1.94911c0,0.80258 0,1.61471 0,2.43639c0,0.82168 0.00955,1.55154 0.02866,2.18957c0.01911,0.63803 0.02866,1.03347 0.02866,1.18635l-7.0512,4.30924c0.07644,-0.46711 0.14332,-1.10991 0.20064,-1.92842c0.05733,-0.8185 0.1051,-1.66938 0.14332,-2.55264c0.03822,-0.88326 0.06688,-1.72246 0.08599,-2.51761c0.01911,-0.79515 0.02866,-1.42202 0.02866,-1.88064c0,-1.14654 -0.03822,-2.22195 -0.11465,-3.22622c-0.07644,-1.00428 -0.26753,-1.80473 -0.57327,-2.40134c-0.30574,-0.59662 -0.74525,-0.95861 -1.31852,-1.08599c-0.57327,-0.12738 -1.37584,0.08602 -2.40773,0.64021c-0.45861,0.28028 -0.86946,0.6269 -1.23253,1.03988c-0.36307,0.41297 -0.62104,0.81905 -0.77391,1.21821v9.34428c0,1.0701 0,2.16887 0,3.29629c0,1.12743 0.01911,2.31006 0.05733,3.54789z" data-paper-data="{&quot;elementType&quot;:&quot;letter&quot;,&quot;baseline&quot;:38.1,&quot;baselineProportion&quot;:1,&quot;fontSize&quot;:100}"></path><path d="M374.31326,284.07054c-2.06377,1.26124 -3.66892,2.0129 -4.81545,2.25497l-0.17198,0.50639l0.28663,0.05413c0.22931,0.05095 0.53505,0.10296 0.91723,0.15603c0.38218,0.05307 0.90768,0.009 1.57649,-0.13221c0.66881,-0.14121 1.48094,-0.40822 2.43639,-0.80104c0.95545,-0.39282 2.12109,-1.00964 3.49694,-1.85047c2.82812,-1.72837 5.14031,-2.58727 6.93655,-2.57669c1.79624,0.01057 2.96189,0.86514 3.49694,2.5637c0,0.38218 -0.2102,1.03613 -0.6306,1.96187c-0.4204,0.92573 -0.95545,1.98842 -1.60515,3.18805c-0.6497,1.19963 -1.37584,2.45553 -2.17842,3.7677c-0.80258,1.31217 -1.5956,2.55161 -2.37906,3.71834c-0.78347,1.16673 -1.51916,2.19916 -2.20708,3.0973c-0.68792,0.89814 -1.22297,1.52131 -1.60515,1.86953c-0.15287,0.16986 -0.35352,0.3307 -0.60193,0.48252c-0.24842,0.15182 -0.5255,0.32115 -0.83124,0.508c-1.22297,0.7474 -2.54149,1.28567 -3.95555,1.6148c-1.41406,0.32913 -2.72303,0.40295 -3.92689,0.22144c-1.20386,-0.18151 -2.21664,-0.61356 -3.03832,-1.29615c-0.82168,-0.68259 -1.23253,-1.65449 -1.23253,-2.91568c0,-0.26753 0.15287,-0.71447 0.45861,-1.34082c0.30574,-0.62636 0.67837,-1.29359 1.11787,-2.00169c0.43951,-0.7081 0.90768,-1.41462 1.40451,-2.11954c0.49683,-0.70492 0.91723,-1.27714 1.26119,-1.71665l0.68792,-0.64972c-0.68792,0.26754 -1.34718,0.42202 -1.97778,0.46344c-0.6306,0.04142 -1.18475,-0.01165 -1.66248,-0.1592c-0.47772,-0.14755 -0.86946,-0.34766 -1.1752,-0.60031c-0.30574,-0.25266 -0.47772,-0.55839 -0.51594,-0.91722v-0.22931c0,-0.45861 0.33441,-1.16937 1.00322,-2.13226c0.66881,-0.9629 1.48094,-1.98471 2.43639,-3.06545c-0.80258,-0.35031 -1.31852,-0.87579 -1.54782,-1.57645c-0.22931,-0.70066 -0.34396,-1.49049 -0.34396,-2.3695v-1.31852c0,-0.53505 0.42995,-1.50484 1.28985,-2.90937c0.8599,-1.40453 1.89179,-2.8855 3.09565,-4.44291c1.20386,-1.55741 2.42684,-3.01184 3.66892,-4.3633c1.24208,-1.35146 2.2453,-2.26075 3.00966,-2.72788c1.79624,-1.09775 3.27718,-1.83082 4.44283,-2.19923c1.16565,-0.36841 2.09243,-0.45707 2.78035,-0.266c0.68792,0.19107 1.1752,0.59076 1.46183,1.19905c0.28663,0.60829 0.42995,1.35195 0.42995,2.23096c0,0.34396 -0.02866,0.74366 -0.08599,1.19909c-0.05733,0.45543 -0.1051,0.88591 -0.14332,1.29145c-0.07644,0.58176 -0.54461,1.56535 -1.40451,2.95077c-0.8599,1.38542 -1.88223,2.84144 -3.06699,4.36806c-1.18475,1.52662 -2.38862,2.95982 -3.61159,4.2996c-1.22297,1.33978 -2.21664,2.24323 -2.981,2.71036M371.16028,292.47537c-0.38218,0.76861 -0.57327,1.68797 -0.57327,2.75807c0,0.80258 0.19109,1.42149 0.57327,1.85674c0.38218,0.43525 0.88857,0.7086 1.51916,0.82005c0.6306,0.11145 1.36629,0.05358 2.20708,-0.17363c0.84079,-0.2272 1.7007,-0.6094 2.57971,-1.1466c0.53505,-0.32699 1.07966,-0.7267 1.63382,-1.19913c0.55416,-0.47243 1.02233,-0.9783 1.40451,-1.5176c0.57327,-1.19114 0.8599,-2.30265 0.8599,-3.33453c0,-0.80258 -0.21975,-1.36575 -0.65926,-1.68953c-0.43951,-0.32378 -1.01277,-0.47982 -1.71981,-0.46813c-0.70703,0.0117 -1.50961,0.18688 -2.40773,0.52556c-0.89812,0.33868 -1.78669,0.77661 -2.6657,1.31381c-0.53505,0.32699 -1.06055,0.69591 -1.57649,1.10677c-0.51594,0.41086 -0.90768,0.79357 -1.1752,1.14816M377.75287,278.35688c0.38218,-0.99792 0.57327,-2.22302 0.57327,-3.6753c0,-0.80258 -0.07644,-1.54888 -0.22931,-2.23893c-0.15287,-0.69004 -0.39173,-1.2511 -0.71659,-1.68316c-0.32485,-0.43207 -0.72614,-0.69321 -1.20386,-0.78344c-0.47772,-0.09022 -1.04144,0.06319 -1.69114,0.46025c-0.26753,0.16349 -0.56371,0.40183 -0.88857,0.71501c-0.32485,0.31318 -0.62104,0.66617 -0.88857,1.05898c-0.61149,1.25271 -0.91723,2.5861 -0.91723,4.00016c0,0.80258 0.11465,1.50642 0.34396,2.11153c0.22931,0.60511 0.55416,1.06584 0.97456,1.38219c0.4204,0.31635 0.90768,0.48673 1.46183,0.51113c0.55416,0.0244 1.1752,-0.1736 1.86312,-0.59402c0.22931,-0.14014 0.47772,-0.32062 0.74525,-0.54144c0.26753,-0.22082 0.45861,-0.46181 0.57327,-0.72297z" data-paper-data="{&quot;elementType&quot;:&quot;letter&quot;,&quot;baseline&quot;:38,&quot;baselineProportion&quot;:0.5965463108320251,&quot;fontSize&quot;:100}"></path></g></g></g></g><g clip-path="url(#clip-1)" data-paper-data="{&quot;elementType&quot;:&quot;emblem&quot;}" fill="url(#color-1)"><path d="M346.93109,121.17201v-21.16754c0,-2.55012 -2.06491,-3.3553 -4.61503,-1.79684l-9.23227,5.64217v-13.8473c0,-2.55012 -2.06491,-3.35309 -4.61503,-1.79462l-9.23227,5.64217v-13.8473c0,-2.55012 -2.06491,-3.35309 -4.61503,-1.79462l-41.5419,25.38774c-1.22742,0.75012 -2.39946,1.95382 -3.26575,3.34731l-12.49359,20.13108l-71.9417,43.96614c-2.55233,1.55982 -4.61503,4.88532 -4.61503,7.43544v13.8473l-9.23227,5.64217c-2.55233,1.55982 -4.61503,4.88532 -4.61503,7.43544v13.8473l-9.23227,5.64217c-2.55233,1.55982 -4.61503,4.88753 -4.61503,7.43765v8.44574l-13.8473,21.05808v108.19947l221.55679,-135.40127v-108.07318zM189.99578,177.44871l69.2365,-42.3129c1.22521,-0.74877 2.39724,-1.95247 3.26353,-3.34596l12.4958,-20.13243l35.01483,-21.39882v9.23227l-23.07957,14.10475c-1.22742,0.75012 -2.39946,1.95382 -3.26575,3.34731l-12.4958,20.13243l-81.16954,49.60561zM176.14848,204.37583l96.93109,-59.23805c1.22521,-0.74877 2.39724,-1.95247 3.26353,-3.34596l12.4958,-20.13243l35.01483,-21.39882v9.23006l-23.07957,14.10475c-1.22742,0.75012 -2.39946,1.95382 -3.26575,3.34731l-12.4958,20.13243l-108.86414,66.53077zM162.30118,231.30074l124.62569,-76.16321c1.22521,-0.74877 2.39724,-1.95247 3.26353,-3.34596l12.4958,-20.13243l35.01483,-21.39882v23.07957l-175.39986,107.19312zM351.54612,231.03982l-203.09224,124.11692v-92.31385l203.09446,-124.11828v92.31385z"></path><path d="M286.92687,219.759l-69.2365,42.3129v-32.31184l69.2365,-42.3129zM226.92043,247.1988l50.77417,-31.02991v-13.8473l-50.77417,31.02991z"></path><path d="M263.8473,252.32607c0,-5.10245 -4.1276,-6.70975 -9.23227,-3.5901c-5.10467,3.11965 -9.23227,9.77199 -9.23227,14.87444c0,3.11066 1.54204,4.90006 3.89054,5.13313l-3.88832,17.94509l18.46233,-11.28299l-3.89054,-13.19115c2.35072,-3.10493 3.89054,-6.77776 3.89054,-9.88842z"></path></g></g></svg>