<svg version="1.1" xmlns="http://www.w3.org/2000/svg" xmlns:xlink="http://www.w3.org/1999/xlink" width="500" height="500"><defs><clipPath id="clip-1"><rect x="65.26062" y="23.05212" transform="scale(2.169,2.169)" width="100" height="83.333"></rect></clipPath></defs><g data-paper-data="{&quot;description&quot;:&quot;Logo for 코리아PC방\n===============\n\nThis logo was generated by MarkMaker at http://emblemmatic.org/markmaker/ and may be composed of elements designed by others.\n\nThe font is Alegreya designed by Huerta Tipográfica and released under the OFL license via Google Fonts: https://www.google.com/fonts/specimen/Alegreya. The font includes this copyright statement: Copyright (c) 2011, Juan Pablo del Peral (juan@huertatipografica.com.ar), with Reserved Font Names \\\&quot;Alegreya\\\&quot; \\\&quot;Alegreya SC\\\n\nThe symbol is 'archive' designed by Iconathon and released into the public domain at the Noun Project: https://thenounproject.com/term/archive/21033.\n\nMarkMaker uses semantic data from the Princeton University WordNet database http://wordnet.princeton.edu and font descriptions from Google Fonts https://www.google.com/fonts.&quot;}" fill="#212f1e" fill-rule="nonzero" stroke="none" stroke-width="1" stroke-linecap="butt" stroke-linejoin="miter" stroke-miterlimit="10" stroke-dasharray="" stroke-dashoffset="0" font-family="none" font-weight="none" font-size="none" text-anchor="none" style="mix-blend-mode: normal"><g data-paper-data="{&quot;elementType&quot;:&quot;logo&quot;}"><g data-paper-data="{&quot;elementType&quot;:&quot;text&quot;}"><g data-paper-data="{&quot;baseline&quot;:64.10000000000001,&quot;elementType&quot;:&quot;row&quot;}"><g data-paper-data="{&quot;baselineProportion&quot;:0.9816232771822357,&quot;fontSize&quot;:100,&quot;baseline&quot;:64.10000000000001,&quot;elementType&quot;:&quot;word&quot;}"><path d="M118.77565,247.97337c4.338,0.20657 8.5727,0.41314 12.70413,0.61971c3.51171,0.20657 7.28163,0.30986 11.30977,0.30986c4.02814,0 7.48821,0 10.3802,0c2.06571,0 5.26757,-0.05164 9.60556,-0.15493c4.338,-0.10329 8.67599,-0.25821 13.01399,-0.46479c5.16428,-0.20657 10.63842,-0.41314 16.42241,-0.61971c21.4834,0 37.90582,4.69949 49.26723,14.09848c11.36142,9.39899 17.04212,23.08433 17.04212,41.05603c0,8.88256 -1.96243,17.40362 -5.88728,25.56319c-3.92485,8.15956 -9.19242,15.38955 -15.8027,21.68998c-6.61028,6.30042 -14.15013,11.30977 -22.61955,15.02805c-8.46942,3.71828 -17.35198,5.57742 -26.64768,5.57742h-26.02797l-0.61971,30.36597c0,7.02342 0.15493,12.65249 0.46479,16.8872c0.30986,4.23471 0.92957,7.43656 1.85914,9.60556c0.92957,2.169 2.27228,3.56335 4.02814,4.18307c1.75586,0.61971 4.18307,0.92957 7.28163,0.92957c1.65257,0 3.40842,0 5.26757,0c1.85914,0 3.615,-0.10329 5.26757,-0.30986c2.06571,-0.20657 4.13142,-0.41314 6.19714,-0.61971l0.61971,1.23943l-2.78871,14.25341c0,0 -0.98121,-0.05164 -2.94364,-0.15493c-1.96243,-0.10329 -4.38964,-0.20657 -7.28163,-0.30986c-2.892,-0.10329 -5.99056,-0.20657 -9.2957,-0.30986c-3.30514,-0.10329 -6.30042,-0.15493 -8.98585,-0.15493c-4.13142,0 -8.83092,0.10329 -14.09848,0.30986c-5.26757,0.20657 -10.27692,0.41314 -15.02805,0.61971c-4.75114,0.20657 -8.72763,0.46479 -11.92949,0.77464c-3.20185,0.30986 -4.90607,0.56807 -5.11264,0.77464l2.169,-14.25341c4.54457,-0.82628 8.26285,-1.75586 11.15484,-2.78871c2.892,-1.03286 5.16428,-2.47885 6.81685,-4.338c1.65257,-1.85914 2.78871,-4.28635 3.40842,-7.28163c0.61971,-2.99528 0.92957,-6.66192 0.92957,-10.99992l0.30986,-130.13986c0,-6.61028 -0.77464,-11.05156 -2.32393,-13.32384c-1.54928,-2.27228 -4.59621,-3.40842 -9.14078,-3.40842c-1.03286,0 -2.169,0.05164 -3.40842,0.15493c-1.23943,0.10329 -2.37557,0.15493 -3.40842,0.15493c-1.23943,0.20657 -2.47885,0.30986 -3.71828,0.30986l-0.61971,-1.23943l2.169,-13.6337M195.00042,357.04296c24.99512,-4.13142 37.49267,-20.24398 37.49267,-48.33766c0,-15.90598 -4.64785,-27.52561 -13.94356,-34.85889c-9.2957,-7.33328 -24.06554,-10.99992 -44.30952,-10.99992c-3.71828,0 -5.99056,0.15493 -6.81685,0.46479c-0.82628,0.30986 -1.34271,1.60093 -1.54928,3.87321c-1.03286,13.84027 -1.8075,28.14533 -2.32393,42.91517c-0.51643,14.76984 -0.98121,28.86833 -1.39436,42.29545z" data-paper-data="{&quot;elementType&quot;:&quot;letter&quot;,&quot;baseline&quot;:64.10000000000001,&quot;baselineProportion&quot;:0.987673343605547,&quot;fontSize&quot;:100}"></path><path d="M380.60464,419.63403l3.40842,9.60556c-5.16428,3.92485 -10.32856,7.43656 -15.49284,10.53513c-4.338,2.68543 -8.98585,5.06099 -13.94356,7.12671c-4.95771,2.06571 -9.2957,3.09857 -13.01399,3.09857c-9.91542,0 -18.84962,-1.60093 -26.80261,-4.80278c-7.95299,-3.20185 -14.7182,-7.79806 -20.29562,-13.78863c-5.57742,-5.99056 -9.91542,-13.22056 -13.01399,-21.68998c-3.09857,-8.46942 -4.64785,-17.86841 -4.64785,-28.19697c0,-11.15484 1.8075,-21.53505 5.42249,-31.14061c3.615,-9.60556 8.62435,-17.97169 15.02805,-25.0984c6.40371,-7.12671 13.9952,-12.70413 22.77447,-16.73227c8.77928,-4.02814 18.22991,-6.04221 28.3519,-6.04221c4.95771,0 9.60556,0.30986 13.94356,0.92957c4.338,0.61971 8.15956,1.34271 11.4647,2.169c3.71828,0.82628 7.33328,1.75586 10.84499,2.78871l0.92957,2.169c-1.03286,3.71828 -1.96243,7.84971 -2.78871,12.39427c-0.82628,3.92485 -1.60093,8.46942 -2.32393,13.6337c-0.723,5.16428 -1.18778,10.7417 -1.39436,16.73227l-12.70413,0.92957v-9.60556c0,-7.64313 -2.32393,-13.78863 -6.97178,-18.43648c-4.64785,-4.64785 -10.79335,-6.97178 -18.43648,-6.97178c-12.80741,0 -22.5679,4.44128 -29.28147,13.32384c-6.71356,8.88256 -10.07035,21.68998 -10.07035,38.42224c0,18.17827 3.76992,32.43168 11.30977,42.76024c7.53985,10.32856 17.81677,15.49284 30.83075,15.49284c4.338,0 8.5727,-0.51643 12.70413,-1.54928c4.13142,-1.03286 7.84971,-2.169 11.15484,-3.40842c3.71828,-1.446 7.43656,-3.20185 11.15484,-5.26757z" data-paper-data="{&quot;elementType&quot;:&quot;letter&quot;,&quot;baseline&quot;:46.400000000000006,&quot;baselineProportion&quot;:0.9747899159663865,&quot;fontSize&quot;:100}"></path></g></g></g></g><g clip-path="url(#clip-1)" data-paper-data="{&quot;elementType&quot;:&quot;emblem&quot;}"><path d="M344.89365,111.39131v-20.7226c0,-2.49652 -2.02151,-4.52019 -4.51802,-4.52019h-9.03821v-13.55624c0,-2.49652 -2.02151,-4.51802 -4.51802,-4.51802h-9.03821v-13.55624c0,-2.49652 -2.02151,-4.51802 -4.51802,-4.51802h-40.66871c-1.20162,0 -2.34902,0.47718 -3.1971,1.32309l-12.23098,12.23315h-70.42952c-2.49869,0 -4.51802,2.02151 -4.51802,4.51802v13.55624h-9.03821c-2.49869,0 -4.51802,2.02151 -4.51802,4.51802v13.55624h-9.03821c-2.49869,0 -4.51802,2.02367 -4.51802,4.52019v8.26822l-13.55624,12.33075v105.92517h216.89976v-105.80153zM191.25704,72.59228h67.78118c1.19946,0 2.34686,-0.47718 3.19493,-1.32309l12.23315,-12.23315h34.27884v9.03821h-22.59445c-1.20162,0 -2.34902,0.47718 -3.1971,1.32309l-12.23315,12.23315h-79.4634zM177.7008,90.66871h94.89365c1.19946,0 2.34686,-0.47718 3.19493,-1.32309l12.23315,-12.23315h34.27884v9.03604h-22.59445c-1.20162,0 -2.34902,0.47718 -3.1971,1.32309l-12.23315,12.23315h-106.57587zM164.14457,108.74296h122.00612c1.19946,0 2.34686,-0.47718 3.19493,-1.32309l12.23315,-12.23315h34.27884v22.59445h-171.71303zM349.41167,221.71086h-198.82333v-90.37345h198.8255v90.37345z"></path><path d="M286.15068,172.00612h-67.78118v-31.63266h67.78118zM227.40555,162.9679h49.70692v-13.55624h-49.70692z"></path><path d="M263.55624,190.08037c0,-4.9952 -4.04084,-9.03821 -9.03821,-9.03821c-4.99737,0 -9.03821,4.04301 -9.03821,9.03821c0,3.04527 1.50962,5.71965 3.80876,7.3529l-3.80659,15.24155h18.07426l-3.80876,-15.24155c2.30131,-1.63326 3.80876,-4.30763 3.80876,-7.3529z"></path></g></g></svg>